<svg width="22" height="22" viewBox="0 0 22 22" fill="none" xmlns="http://www.w3.org/2000/svg">
<path d="M11 1.98202C13.9371 1.98202 14.285 1.9932 15.4449 2.04612C16.5174 2.09507 17.0998 2.27427 17.4875 2.42487C18.0009 2.62442 18.3674 2.86282 18.7523 3.24773C19.1372 3.63263 19.3756 3.99911 19.5751 4.51251C19.7257 4.90017 19.9049 5.48261 19.9539 6.55506C20.0068 7.71501 20.018 8.06288 20.018 11C20.018 13.9372 20.0068 14.285 19.9539 15.4449C19.9049 16.5174 19.7257 17.0999 19.5751 17.4875C19.3756 18.0009 19.1372 18.3674 18.7523 18.7523C18.3674 19.1372 18.0009 19.3756 17.4875 19.5751C17.0998 19.7258 16.5174 19.905 15.4449 19.9539C14.2852 20.0068 13.9373 20.018 11 20.018C8.06266 20.018 7.71479 20.0068 6.55506 19.9539C5.48257 19.905 4.90012 19.7258 4.51251 19.5751C3.99906 19.3756 3.63259 19.1372 3.24768 18.7523C2.86278 18.3674 2.62437 18.0009 2.42487 17.4875C2.27423 17.0999 2.09503 16.5174 2.04608 15.445C1.99316 14.285 1.98198 13.9372 1.98198 11C1.98198 8.06288 1.99316 7.715 2.04608 6.5551C2.09503 5.48261 2.27423 4.90017 2.42487 4.51251C2.62437 3.99911 2.86278 3.63263 3.24768 3.24773C3.63259 2.86282 3.99906 2.62442 4.51251 2.42487C4.90012 2.27427 5.48257 2.09507 6.55501 2.04612C7.71496 1.9932 8.06284 1.98202 11 1.98202ZM11 0C8.01254 0 7.63798 0.0126629 6.46471 0.0661956C5.29385 0.119641 4.49426 0.305565 3.79454 0.577508C3.07119 0.85862 2.45775 1.23475 1.84623 1.84627C1.2347 2.45779 0.858576 3.07123 0.577464 3.79458C0.305521 4.49431 0.119597 5.29389 0.0661515 6.46476C0.0126188 7.63798 0 8.01258 0 11C0 13.9875 0.0126188 14.3621 0.0661515 15.5353C0.119597 16.7062 0.305521 17.5057 0.577464 18.2055C0.858576 18.9288 1.2347 19.5423 1.84623 20.1538C2.45775 20.7653 3.07119 21.1414 3.79454 21.4225C4.49426 21.6945 5.29385 21.8804 6.46471 21.9338C7.63798 21.9874 8.01254 22 11 22C13.9874 22 14.362 21.9874 15.5352 21.9338C16.7061 21.8804 17.5057 21.6945 18.2054 21.4225C18.9288 21.1414 19.5422 20.7653 20.1537 20.1538C20.7653 19.5423 21.1414 18.9288 21.4225 18.2055C21.6944 17.5057 21.8804 16.7062 21.9338 15.5353C21.9873 14.3621 22 13.9875 22 11C22 8.01258 21.9873 7.63798 21.9338 6.46476C21.8804 5.29389 21.6944 4.49431 21.4225 3.79458C21.1414 3.07123 20.7653 2.45779 20.1537 1.84627C19.5422 1.23475 18.9288 0.85862 18.2054 0.577508C17.5057 0.305565 16.7061 0.119641 15.5352 0.0661956C14.362 0.0126629 13.9874 0 11 0ZM11 5.35136C7.88032 5.35136 5.35131 7.88036 5.35131 11C5.35131 14.1197 7.88032 16.6487 11 16.6487C14.1196 16.6487 16.6486 14.1197 16.6486 11C16.6486 7.88036 14.1196 5.35136 11 5.35136ZM11 14.6667C8.97495 14.6667 7.33329 13.0251 7.33329 11C7.33329 8.97499 8.97495 7.33333 11 7.33333C13.025 7.33333 14.6667 8.97499 14.6667 11C14.6667 13.0251 13.025 14.6667 11 14.6667ZM18.1918 5.12819C18.1918 5.85721 17.6008 6.44821 16.8718 6.44821C16.1428 6.44821 15.5518 5.85721 15.5518 5.12819C15.5518 4.39916 16.1428 3.80821 16.8718 3.80821C17.6008 3.80821 18.1918 4.39916 18.1918 5.12819Z" fill="white"/>
</svg>
