<svg width="340" height="133" viewBox="0 0 340 133" fill="none" xmlns="http://www.w3.org/2000/svg">
<g clip-path="url(#clip0_2813_370)">
<path d="M49.6422 59.9515C50.3822 60.056 50.7522 60.1604 50.7522 60.4738C50.7522 60.7872 50.6288 60.9961 50.2589 61.3095C49.8889 61.6229 49.6422 61.8318 49.2723 61.9363C48.039 62.6675 46.8057 63.3988 45.6958 64.2344C44.5858 65.0701 43.4759 65.9058 42.3659 66.7415C41.3793 67.4728 40.886 68.4129 40.7627 69.4575C40.516 70.92 40.2693 72.6959 39.776 74.7851C39.2827 76.8743 38.7894 79.068 38.0495 81.2617C37.3095 83.4554 36.4462 85.5447 35.4596 87.425C34.473 89.3053 33.2397 90.7678 32.0064 91.7079C31.3898 92.1258 30.6498 92.4392 29.9099 92.5436C29.1699 92.6481 28.4299 92.6481 27.69 92.4392C26.95 92.2302 26.3334 91.9168 26.0867 91.499C25.7167 91.0812 25.4701 90.5588 25.4701 89.9321C25.2234 88.2607 25.4701 86.3804 26.21 84.2911C26.95 82.2019 27.9366 80.2171 29.0466 78.2323C30.1565 76.2476 31.2665 74.5762 32.3764 73.3226C33.6097 71.6513 35.0896 70.0843 36.5695 68.6219C37.4328 67.8906 37.8028 66.9505 37.9261 65.9058C38.1728 64.2345 38.2961 61.6229 38.5428 58.0712C38.7894 54.5195 38.9128 50.7589 38.9128 46.6849C38.9128 42.6109 38.6661 38.8502 38.2961 35.2985C37.9261 31.8513 37.1862 29.2397 36.1996 27.5683C35.9529 27.1505 35.5829 26.7326 35.2129 26.4193C34.7196 25.8969 34.103 25.7925 33.363 26.1059C32.6231 26.4192 31.8831 26.7326 31.2665 27.1505C29.4165 28.404 27.9366 29.8665 26.8267 31.4334C25.5934 33.0004 24.7301 34.7762 24.3601 36.761C23.9901 38.2235 23.9901 39.6859 24.3601 41.2528C24.6068 42.193 25.1001 43.0287 25.7167 43.7599C26.3334 44.4912 27.32 44.909 28.4299 45.2224C28.5533 45.2224 28.5533 45.2224 28.5533 45.2224C28.7999 45.3269 28.9232 45.3268 29.1699 45.4313C29.4165 45.5358 29.4165 45.6402 29.5399 45.9536C29.5399 46.3715 29.0466 46.5804 28.1833 46.5804C27.1967 46.6849 26.21 46.4759 25.3467 46.0581C23.9901 45.3269 23.0035 44.4912 22.2636 43.4465C21.6469 42.4019 21.1536 41.2528 21.0303 39.9993C20.907 38.0145 21.1536 36.1342 21.8936 34.3584C23.3735 30.9111 25.84 28.0907 29.1699 25.7925C30.6498 24.7479 32.2531 24.2256 34.2263 24.1211C36.6929 24.1211 38.4194 24.9568 39.5294 26.8371C40.516 28.404 41.1326 30.8067 41.6259 34.045C42.1193 37.1788 42.3659 40.7305 42.3659 44.4912C42.4892 48.2518 42.3659 51.699 42.2426 55.0418C42.1193 58.2801 41.9959 60.8917 41.7493 62.6675C41.626 63.3988 41.626 63.8166 41.8726 63.9211C41.9959 64.0255 42.4892 63.8166 43.1059 63.3988C43.7225 62.9809 44.3392 62.5631 45.0791 62.1452C45.5724 61.8318 46.0657 61.5184 46.559 61.2051C46.929 60.8917 47.4223 60.6827 48.039 60.3694C48.6556 60.056 49.1489 59.9515 49.6422 59.9515ZM36.5695 74.3673C36.8162 73.2182 36.6929 72.6959 36.4462 72.8003C36.1995 72.9048 35.8296 73.4271 35.2129 74.1583C34.5963 74.8896 33.733 76.1431 32.8697 77.71C32.0064 79.277 31.1431 81.0528 30.4032 82.9331C29.9099 84.2911 29.4165 85.6491 29.1699 86.7982C28.7999 87.9473 28.6766 88.8875 28.6766 89.6187C28.6766 90.3499 28.7999 90.6633 29.1699 90.6633C29.5399 90.5588 30.1565 90.0365 30.8965 88.8875C32.3764 86.9027 33.4863 84.5001 34.473 81.8885C35.4596 79.1725 36.0762 76.6654 36.5695 74.3673Z" fill="#C89F9C"/>
<path d="M65.5516 60.2625C66.045 60.3669 66.2916 60.5758 66.4149 60.9937C66.4149 61.4115 66.2916 61.7249 65.675 62.1428C65.1817 62.5606 64.6884 62.874 64.195 63.1874C63.0851 64.0231 61.8518 64.8588 60.4952 65.7989C59.5086 66.5302 58.522 67.2614 57.6587 68.0971C57.0421 68.7239 56.5487 69.3506 56.1788 70.0819C55.8088 71.022 55.3155 71.8577 54.4522 72.6934C53.9589 73.1113 53.4656 73.4246 52.8489 73.5291C52.2323 73.6336 51.6157 73.6336 50.999 73.4246C50.7524 73.3202 50.5057 73.2157 50.259 73.0068C50.1357 72.7979 50.0124 72.589 50.1357 72.2756C50.259 71.8577 50.3824 71.4399 50.7524 71.1265C51.1223 70.7086 51.4923 70.1863 51.9856 69.7685L52.109 69.664C53.5889 68.0971 53.7122 66.4257 52.3556 64.7543C51.9856 64.3365 51.6157 64.0231 51.2457 63.7097C51.1223 63.6052 50.999 63.5008 50.8757 63.3963C50.629 63.1874 50.3824 62.874 50.1357 62.6651C49.6424 62.2472 49.1491 61.7249 48.7791 61.3071C47.4225 59.7401 47.5458 58.2777 49.0258 56.9197C50.259 55.6661 51.8623 54.726 53.8355 54.3081C55.0688 53.9947 56.1788 54.0992 57.2887 54.6215C58.3987 55.1438 58.892 55.875 58.7686 56.9197C58.6453 57.6509 58.2753 57.9643 57.5354 58.1732C56.6721 58.2777 56.0554 58.0687 55.5621 57.442C55.4388 57.233 55.3155 57.0241 55.3155 56.8152C55.3155 56.6063 55.1921 56.5018 55.0688 56.3974C54.9455 56.2929 54.8222 56.2929 54.5755 56.2929C54.3288 56.2929 54.0822 56.5018 53.5889 56.7107C52.9723 57.0241 52.3556 57.442 51.8623 58.0687C51.1223 58.9044 50.999 59.7401 51.739 60.6803C51.9856 60.9937 52.2323 61.2026 52.4789 61.516C52.8489 61.8294 53.0956 62.1428 53.3422 62.3517C53.9589 62.874 54.4522 63.3963 54.9455 63.8142C55.4388 64.3365 55.9321 64.8588 56.3021 65.4855C56.5487 65.4855 57.0421 65.1722 57.782 64.7543C58.522 64.3365 59.2619 63.8142 60.1252 63.2918C60.9885 62.7695 61.7285 62.2472 62.4685 61.8294C63.0851 61.4115 63.4551 61.2026 63.7017 60.9937C63.9484 60.8892 64.0717 60.7848 64.4417 60.7848C64.935 60.2625 65.1817 60.2625 65.5516 60.2625Z" fill="#C89F9C"/>
<path d="M81.0906 60.2643C81.2139 60.2643 81.3373 60.3687 81.3373 60.3687C81.3373 60.3687 81.4606 60.4732 81.4606 60.6821C81.4606 60.7866 81.4606 60.9955 81.3373 61.2044C81.2139 61.4133 80.9673 61.5178 80.844 61.7267C79.734 62.5624 78.5007 63.0847 77.0208 63.2937C76.1575 63.3981 75.4176 63.3981 74.5543 63.3981C73.691 63.2937 72.951 63.1892 72.0877 62.8758C71.4711 62.6669 70.9778 62.6669 70.4845 63.0847C69.4978 63.9204 68.3879 64.6517 67.2779 65.3829C66.6613 65.8007 66.0447 66.1141 65.428 66.323C64.8114 66.532 64.0714 66.7409 63.3315 66.7409C61.1116 66.7409 60.2483 65.8007 60.7416 64.0249C60.7416 63.9204 60.8649 63.9204 60.8649 63.816C61.4816 62.3535 62.3449 61.1 63.3315 59.9509C64.3181 58.8018 65.6747 57.8616 67.2779 57.0259C68.3879 56.5036 69.4978 56.2947 70.7311 56.3992C70.9778 56.5036 71.3478 56.6081 71.5944 56.7126C71.9644 56.817 72.0877 57.1304 71.9644 57.4438C71.9644 57.5482 71.8411 57.6527 71.8411 57.6527C71.7177 57.7572 71.7177 57.7572 71.5944 57.8616C71.5944 57.9661 71.4711 57.9661 71.3478 57.9661C71.2244 57.9661 71.2244 57.9661 71.1011 57.9661C70.2378 57.9661 69.4978 58.175 68.8812 58.5929C68.2646 59.0107 67.6479 59.4286 67.1546 59.9509C66.538 60.4732 66.0447 61.1 65.5514 61.7267C65.0581 62.3535 64.6881 63.1892 64.3181 64.0249C65.428 63.5026 66.4147 62.8758 67.0313 62.3535C67.1546 62.249 67.2779 62.1446 67.4013 62.0401C67.5246 61.9357 67.6479 61.8312 67.7713 61.8312C68.3879 61.4133 69.0045 60.9955 69.6212 60.5776C70.3611 60.2643 71.1011 60.0553 71.7177 60.0553C72.4577 60.0553 73.0743 60.2643 73.8143 60.7866C74.6776 61.5178 75.6642 61.7267 76.5275 61.6223C77.3908 61.5178 78.2541 61.2044 78.994 60.891C79.8573 60.3687 80.474 60.2643 81.0906 60.2643Z" fill="#C89F9C"/>
<path d="M102.92 60.2618C103.536 60.5752 103.536 60.8885 102.92 61.4108C102.303 61.8287 101.44 62.351 100.33 62.9778C99.2198 63.5001 97.9866 64.0224 96.8766 64.4402C95.7667 64.8581 94.9034 65.1715 94.2867 65.3804C94.0401 65.4849 94.0401 65.4849 93.9168 65.4849C92.3135 66.1116 90.8336 66.7384 89.477 67.4696C87.997 68.2009 86.5171 68.8276 84.9139 69.5589C84.1739 69.8723 83.3106 69.9767 82.4473 69.7678C82.2007 69.6633 82.0773 69.5589 82.0773 69.3499C81.954 69.141 82.0773 69.0366 82.2007 68.8276L82.324 68.7232C82.9406 68.3053 83.5573 67.8875 84.1739 67.6786C85.0372 67.2607 85.6538 66.6339 86.1471 65.7982C86.6404 64.9625 87.0104 64.2313 87.2571 63.3956C87.5037 62.7689 87.6271 62.0376 87.6271 61.3064C87.6271 60.993 87.6271 60.7841 87.6271 60.4707C87.5037 60.1573 87.3804 59.9484 87.0104 59.7395C86.5171 59.5305 86.1471 59.635 85.6538 59.9484C85.1605 60.2618 84.6672 60.7841 84.1739 61.5153C83.6806 62.1421 83.3106 62.7689 82.9406 63.3956C82.5706 64.0224 82.4473 64.5447 82.324 64.8581C82.2006 65.4849 81.7073 65.7982 80.9674 65.7982C79.9808 65.9027 79.4875 65.5893 79.3641 64.7536C79.1175 62.9778 78.9941 60.2618 78.9941 56.7101C78.9941 53.1583 79.2408 49.3977 79.6108 45.3237C79.9808 41.2497 80.4741 37.698 81.214 34.4597C81.954 31.2213 82.8173 29.0277 83.9272 27.7741C84.6672 27.0429 85.5305 26.7295 86.7638 26.7295C88.2437 26.7295 89.2303 27.3563 89.7236 28.5053C90.3403 29.8633 90.5869 31.4303 90.5869 33.2061C90.5869 34.982 90.3403 36.8623 89.9703 38.6381C89.6003 40.414 89.2303 41.9809 88.8603 43.2345C88.1204 45.5326 87.2571 47.8308 86.3938 50.0245C85.5305 52.2182 84.4205 54.4119 83.1873 56.5011C83.0639 56.6056 83.0639 56.6056 83.0639 56.7101C82.9406 56.919 82.8173 57.2324 82.694 57.4413C82.5706 57.7547 82.694 58.0681 82.9406 58.4859C83.0639 58.3814 83.3106 58.3814 83.4339 58.277C83.8039 58.1725 84.0506 58.0681 84.4205 57.9636C85.2838 57.6502 86.2705 57.4413 87.3804 57.5458C90.0936 57.7547 91.4502 59.0082 91.4502 61.2019C91.4502 61.7242 91.3269 62.2465 91.2036 62.7688C91.0802 63.5001 91.2036 63.9179 91.6969 63.9179C92.1902 63.9179 92.8068 63.709 93.6701 63.3956C93.7934 63.3956 93.7934 63.2912 93.9168 63.2912C94.5334 63.0822 95.52 62.6644 96.8766 62.0376C98.2332 61.5153 99.4665 60.993 100.7 60.5751C101.81 60.4707 102.55 60.2618 102.92 60.2618ZM83.3106 42.8166C83.1873 43.4434 83.1873 44.2791 83.0639 45.3237C82.9406 46.5773 82.8173 47.9353 82.694 49.2933C82.5706 50.6513 82.4473 51.6959 82.324 52.5316C82.8173 52.0093 83.1873 51.0691 83.6806 49.5022C84.1739 47.9353 84.6672 46.2639 85.0372 44.3835C85.5305 42.5032 85.9005 40.9363 86.1471 39.4738C86.3938 38.0114 86.6404 37.2801 86.6404 36.9668C86.6404 36.7578 86.7638 36.34 86.7638 35.6088C86.8871 34.8775 86.8871 34.1463 86.8871 33.3106C86.8871 32.4749 86.8871 31.7437 86.7638 31.2214C86.6404 30.5946 86.5171 30.2812 86.1471 30.2812C86.0238 30.2812 86.0238 30.3857 85.9005 30.4901C85.7771 30.5946 85.7771 30.699 85.6538 30.8035C85.5305 31.2213 85.2838 31.6392 85.1605 32.0571C85.1605 32.0571 85.1605 32.1615 85.1605 32.266C84.5439 34.0418 84.1739 35.8177 83.8039 37.5935C83.8039 39.1605 83.5573 40.9363 83.3106 42.8166Z" fill="#C89F9C"/>
<path d="M105.263 62.1422C105.14 62.1422 105.14 62.1422 105.263 62.1422C105.14 62.1422 105.14 62.1422 105.263 62.1422C105.14 62.1422 105.14 62.1422 105.263 62.1422ZM118.952 60.4708C119.076 60.3663 119.322 60.2618 119.569 60.1574C119.939 60.0529 120.186 59.9485 120.432 59.9485C120.679 59.9485 120.926 60.0529 121.049 60.2618C121.172 60.3663 121.172 60.5752 121.049 60.6797C121.049 60.7842 120.926 60.8886 120.802 60.9931C120.062 61.6199 118.952 62.3511 117.472 62.9778C115.992 63.7091 114.389 64.2314 112.786 64.7537C111.183 65.276 109.826 65.5894 108.716 65.7983C107.483 66.0072 106.25 66.0072 105.016 65.9028C103.413 65.6939 102.303 65.1715 101.563 64.2314C100.823 63.2912 100.453 62.2466 100.7 61.0975C100.947 59.844 101.563 58.7994 102.796 57.9637C103.906 57.2324 105.263 56.9191 106.866 57.128C107.73 57.2325 108.593 57.5458 109.333 57.9637C110.196 58.486 110.566 59.1128 110.443 59.844C110.319 60.5752 109.826 61.0975 108.963 61.5154C108.469 61.7243 107.976 61.8288 107.36 61.9332C106.743 61.9332 106.126 61.9332 105.263 61.9332C105.263 61.9332 105.14 61.9332 105.016 61.9332C104.893 61.9332 104.893 61.9332 104.77 61.9332C104.523 61.9332 104.4 62.0377 104.276 62.1422C104.153 62.2466 104.153 62.3511 104.276 62.56C104.646 63.5002 105.51 63.918 106.866 64.0225C108.1 64.0225 109.579 63.8136 111.183 63.3957C112.786 62.9779 114.266 62.4555 115.746 61.8288C117.102 61.3065 118.212 60.8886 118.952 60.4708ZM105.14 59.3217C104.893 59.4261 104.77 59.5306 104.77 59.7395C104.646 59.844 104.646 60.0529 104.646 60.1574C104.646 60.2618 104.646 60.3663 104.646 60.3663C104.646 60.3663 104.893 60.4708 105.14 60.4708C105.386 60.4708 105.756 60.4708 106.003 60.4708C106.373 60.4708 106.62 60.3663 106.866 60.2618C107.113 60.1574 107.113 59.9485 107.113 59.7395C106.99 59.4262 106.743 59.2172 106.25 59.1128C105.88 59.0083 105.51 59.1128 105.14 59.3217Z" fill="#C89F9C"/>
<path d="M135.231 60.5773C135.848 60.1595 136.341 60.055 136.711 60.264C137.081 60.5773 137.081 61.0997 136.711 61.8309C135.848 63.2934 134.615 64.7558 133.258 66.0094C131.902 67.2629 130.175 68.3075 128.448 68.8298C127.709 69.0387 126.845 69.1432 126.105 69.1432C125.365 69.1432 124.502 69.0387 123.762 68.9343C123.022 68.8298 122.405 68.5164 121.912 68.0986C121.419 67.6807 120.925 67.2629 120.556 66.7406C119.446 64.9647 118.706 62.4576 118.459 59.1149C118.212 55.7721 118.089 52.2204 118.336 48.2508C118.582 44.2813 118.952 40.5207 119.446 36.969C119.939 33.4172 120.556 30.3879 121.049 28.0897C121.295 27.1495 121.665 26.2094 122.282 25.2692C122.899 24.3291 123.762 23.9112 124.995 24.0157C126.105 24.0157 126.969 24.4335 127.339 25.3737C127.832 26.5228 128.078 27.6718 128.078 28.9254C128.325 31.7459 128.202 34.5663 127.832 37.3868C127.462 40.1028 126.969 42.6099 126.352 45.0125C125.735 47.4151 125.119 49.7133 124.502 52.0115C123.639 54.7275 122.899 57.6524 122.159 60.6818C122.159 60.9952 122.282 61.3086 122.282 61.5175C122.405 62.3532 122.529 63.0844 122.652 63.7112C122.899 64.338 123.269 65.0692 123.885 66.0094C124.502 66.8451 125.242 67.2629 126.105 67.3674C126.969 67.3674 127.955 67.1584 128.818 66.7406C129.805 66.3227 130.545 65.696 131.408 65.0692C132.148 64.4424 132.765 63.8157 133.258 63.2933C133.382 63.1889 133.628 62.8755 133.875 62.4576C134.245 62.0398 134.492 61.622 134.861 61.3086C134.861 60.9952 135.108 60.7863 135.231 60.5773ZM121.542 51.8025C121.912 50.9668 122.282 49.7133 122.652 47.9375C123.022 46.1616 123.392 44.1768 123.639 41.9831C124.009 39.7894 124.132 37.7002 124.379 35.7154C124.502 33.7306 124.625 32.1637 124.502 30.9102C124.502 29.7611 124.255 29.2388 124.009 29.3432C123.515 31.0146 123.269 32.5815 123.145 34.044C123.022 34.7752 122.899 35.9243 122.775 37.3868C122.405 39.9983 122.159 42.7144 121.789 45.6393C121.542 48.5642 121.419 50.549 121.542 51.8025Z" fill="#C89F9C"/>
<path d="M152.374 60.2643C152.497 60.2643 152.621 60.3687 152.621 60.3687C152.621 60.3687 152.744 60.4732 152.744 60.6821C152.744 60.7866 152.744 60.9955 152.621 61.2044C152.497 61.4133 152.251 61.5178 152.127 61.7267C151.017 62.5624 149.784 63.0847 148.304 63.2937C147.441 63.3981 146.701 63.3981 145.838 63.3981C144.974 63.2937 144.234 63.1892 143.371 62.8758C142.754 62.6669 142.261 62.6669 141.768 63.0847C140.781 63.9204 139.671 64.6517 138.561 65.3829C137.945 65.8007 137.328 66.1141 136.711 66.323C136.095 66.532 135.355 66.7409 134.615 66.7409C132.395 66.7409 131.532 65.8007 132.025 64.0249C132.025 63.9204 132.148 63.9204 132.148 63.816C132.765 62.3535 133.628 61.1 134.615 59.9509C135.601 58.8018 136.958 57.8616 138.561 57.0259C139.671 56.5036 140.781 56.2947 142.014 56.3992C142.261 56.5036 142.631 56.6081 142.878 56.7126C143.248 56.817 143.371 57.1304 143.248 57.4438C143.248 57.5482 143.124 57.6527 143.124 57.6527C143.001 57.7572 143.001 57.7572 142.878 57.8616C142.878 57.9661 142.754 57.9661 142.631 57.9661C142.508 57.9661 142.508 57.9661 142.384 57.9661C141.521 57.9661 140.781 58.175 140.165 58.5929C139.548 59.0107 138.931 59.4286 138.438 59.9509C137.821 60.4732 137.328 61.1 136.835 61.7267C136.341 62.3535 135.971 63.1892 135.601 64.0249C136.711 63.5026 137.698 62.8758 138.315 62.3535C138.438 62.249 138.561 62.1446 138.685 62.0401C138.808 61.9357 138.931 61.8312 139.055 61.8312C139.671 61.4133 140.288 60.9955 140.904 60.5776C141.644 60.2643 142.384 60.0553 143.001 60.0553C143.741 60.0553 144.358 60.2643 145.098 60.7866C145.961 61.5178 146.948 61.7267 147.811 61.6223C148.674 61.5178 149.537 61.2044 150.277 60.891C151.141 60.4732 151.881 60.2643 152.374 60.2643Z" fill="#C89F9C"/>
<path d="M220.204 61.4124C219.834 61.7257 219.587 62.1436 219.094 62.457C218.847 62.6659 218.724 62.8748 218.477 62.9793C215.024 66.3221 211.448 69.4559 207.624 72.4853C204.171 75.2013 200.471 77.7084 196.525 79.9021C194.428 81.0512 192.332 81.9914 189.989 82.7226C187.769 83.4538 185.426 84.0806 182.959 84.394C180.492 84.7074 178.149 84.8118 175.683 84.6029C172.106 84.185 169.393 83.1404 167.42 81.5735C165.446 79.9021 164.213 77.9173 163.473 75.5147C162.857 73.1121 162.61 70.605 162.857 67.889C163.103 65.173 163.72 62.5614 164.46 60.0543C165.323 57.5473 166.186 55.2491 167.173 53.3688C169.27 49.3992 171.613 45.6386 174.449 42.0869C177.286 38.5352 180.492 35.1924 184.192 32.163C184.686 31.7452 184.932 31.4318 184.809 31.3273C184.686 31.2229 184.439 31.014 183.946 31.014C183.699 31.014 183.452 30.9095 183.206 30.9095C181.972 30.5961 180.862 30.2827 179.629 29.8649C177.656 29.3426 175.683 28.8203 173.709 28.2979C171.736 27.7756 169.763 27.3578 167.79 27.1489C166.063 26.8355 164.213 26.8355 162.487 26.9399C161.253 26.9399 160.02 27.2533 158.91 27.8801C158.17 28.1935 157.554 28.7158 157.06 29.1336C156.567 29.656 156.197 30.2827 156.197 31.1184C156.074 31.8496 155.457 32.163 154.347 31.9541C153.607 31.8496 153.237 31.4318 153.237 30.805C153.237 30.2827 153.36 29.8649 153.607 29.447C153.854 29.0292 154.1 28.6113 154.594 28.2979C155.95 26.9399 157.677 25.9998 159.897 25.6864C162.487 25.1641 165.2 25.0596 167.913 25.373C169.886 25.5819 171.86 25.9998 173.709 26.4176C175.559 26.8355 177.533 27.3578 179.382 27.8801C179.506 27.8801 179.752 27.9846 179.876 27.9846C180.492 28.1935 180.986 28.2979 181.602 28.5069C183.082 28.8202 184.439 29.2381 185.795 29.656C186.289 29.8649 186.782 29.8649 187.275 29.7604C187.769 29.6559 188.139 29.447 188.632 29.2381C190.359 27.9846 192.332 27.0444 194.305 26.2087C196.895 25.0596 199.731 24.4329 202.691 24.2239C203.555 24.1195 204.541 24.2239 205.405 24.3284C206.268 24.4328 207.131 24.6418 207.994 24.9552C209.351 25.5819 210.091 26.3132 210.338 27.3578C210.584 28.2979 210.091 29.3426 209.104 30.2827C208.118 31.1184 207.008 31.7452 205.775 32.0586C204.171 32.5809 202.568 32.8943 200.965 32.9987C199.238 33.1032 197.635 33.1032 195.908 33.1032C194.182 33.1032 192.578 32.8943 190.975 32.5809C190.852 32.5809 190.729 32.5809 190.605 32.4764C189.989 32.372 189.495 32.2675 189.002 32.2675C188.509 32.2675 188.015 32.4764 187.522 32.8943C183.206 36.5504 179.382 40.52 176.176 45.0118C172.969 49.5037 170.256 54.2045 168.406 59.0097C167.666 60.6811 167.05 62.6659 166.68 64.7551C166.31 66.8444 166.063 68.9336 166.186 71.0228C166.31 73.1121 166.803 75.0969 167.79 76.8727C168.776 78.753 170.256 80.2155 172.229 81.469C173.956 82.4092 175.806 82.9315 177.903 83.036C180.986 83.1404 183.946 82.7226 186.782 81.7824C189.865 80.8423 192.702 79.4843 195.415 77.9173C197.758 76.5593 199.978 75.0969 202.198 73.5299C204.295 71.963 206.391 70.2916 208.488 68.6202C209.228 67.9935 210.584 66.9488 212.434 65.4864C214.284 64.0239 216.011 62.7704 217.614 61.6213C217.861 61.4124 218.107 61.2034 218.354 60.9945C218.847 60.5767 219.217 60.3677 219.587 60.1588C219.957 59.9499 220.327 59.8454 220.697 59.9499C221.437 59.8454 221.314 60.3677 220.204 61.4124ZM202.691 25.5819C200.471 25.7909 198.498 26.4176 196.525 27.2533C194.675 28.089 192.702 29.1336 190.975 30.2827C192.578 30.805 194.305 31.014 196.032 31.2229C197.882 31.3273 199.485 31.3273 200.965 31.1184C202.321 30.9095 203.555 30.5961 204.788 30.0738C205.528 29.7604 206.145 29.3426 206.761 28.7158C207.254 28.1935 207.378 27.5667 207.131 27.1489C207.008 26.6265 206.514 26.2087 205.775 25.9998C204.911 25.5819 203.801 25.373 202.691 25.5819Z" fill="#C89F9C"/>
<path d="M236.606 60.3687C236.73 60.3687 236.853 60.4732 236.853 60.4732C236.853 60.4732 236.976 60.5777 236.976 60.7866C236.976 60.8911 236.976 61.1 236.853 61.3089C236.73 61.5178 236.483 61.6223 236.36 61.8312C235.25 62.6669 234.016 63.1892 232.537 63.3981C231.673 63.5026 230.933 63.5026 230.07 63.5026C229.207 63.3981 228.467 63.2937 227.603 62.9803C226.987 62.7714 226.494 62.7714 226 63.1892C225.014 64.0249 223.904 64.7561 222.794 65.4874C222.177 65.9052 221.56 66.2186 220.944 66.4275C220.327 66.6365 219.587 66.8454 218.847 66.8454C216.627 66.8454 215.764 65.9052 216.257 64.1294C216.257 64.0249 216.381 64.0249 216.381 63.9205C216.997 62.458 217.861 61.2044 218.847 60.0554C219.834 58.9063 221.19 57.9661 222.794 57.1304C223.904 56.6081 225.014 56.3992 226.247 56.5037C226.494 56.6081 226.863 56.7126 227.11 56.817C227.48 56.9215 227.603 57.2349 227.48 57.5483C227.48 57.6527 227.357 57.7572 227.357 57.7572C227.233 57.8617 227.233 57.8617 227.11 57.9661C227.11 58.0706 226.987 58.0706 226.863 58.0706C226.74 58.0706 226.74 58.0706 226.617 58.0706C225.754 58.0706 225.014 58.2795 224.397 58.6974C223.78 59.1152 223.164 59.533 222.67 60.0554C222.054 60.5777 221.56 61.2044 221.067 61.8312C220.574 62.458 220.204 63.2937 219.834 64.1294C220.944 63.6071 221.93 62.9803 222.547 62.458C222.67 62.3535 222.794 62.2491 222.917 62.1446C223.04 62.0401 223.164 61.9357 223.287 61.9357C223.904 61.5178 224.52 61.1 225.137 60.6821C225.877 60.3687 226.617 60.1598 227.233 60.1598C227.973 60.1598 228.59 60.3687 229.33 60.891C230.193 61.6223 231.18 61.8312 232.043 61.7267C232.907 61.6223 233.77 61.3089 234.51 60.9955C235.373 60.5777 236.113 60.3687 236.606 60.3687Z" fill="#C89F9C"/>
<path d="M252.022 60.365C252.515 60.4694 252.762 60.6784 252.885 61.0962C252.885 61.5141 252.762 61.8274 252.145 62.2453C251.652 62.6631 251.159 62.9765 250.666 63.2899C249.556 64.1256 248.322 64.9613 246.966 65.9015C245.979 66.6327 244.992 67.3639 244.129 68.1996C243.513 68.8264 243.019 69.4532 242.649 70.1844C242.279 71.1246 241.786 71.9603 240.923 72.7959C240.429 73.2138 239.936 73.5272 239.319 73.6316C238.703 73.7361 238.086 73.7361 237.469 73.5272C237.223 73.4227 236.976 73.3182 236.73 73.1093C236.606 72.9004 236.483 72.6915 236.606 72.3781C236.73 71.9602 236.853 71.5424 237.223 71.229C237.593 70.8112 237.963 70.2889 238.456 69.871L238.579 69.7665C240.059 68.1996 240.183 66.5282 238.826 64.8568C238.456 64.439 238.086 64.1256 237.716 63.8122C237.593 63.7078 237.469 63.6033 237.346 63.4988C237.099 63.2899 236.853 62.9765 236.606 62.7676C236.113 62.3498 235.62 61.8274 235.25 61.4096C233.893 59.8427 234.016 58.3802 235.496 57.0222C236.73 55.7687 238.333 54.8285 240.306 54.4107C241.539 54.0973 242.649 54.2017 243.759 54.724C244.869 55.2464 245.362 55.9776 245.239 57.0222C245.116 57.7534 244.746 58.0668 244.006 58.2757C243.143 58.3802 242.526 58.1713 242.033 57.5445C241.909 57.3356 241.786 57.1267 241.786 56.9177C241.786 56.7088 241.663 56.6044 241.539 56.4999C241.416 56.3954 241.293 56.3954 241.046 56.3954C240.799 56.3954 240.553 56.6044 240.059 56.8133C239.443 57.1267 238.826 57.5445 238.333 58.1713C237.593 59.007 237.469 59.8427 238.209 60.7828C238.456 61.0962 238.703 61.3051 238.949 61.6185C239.319 61.9319 239.566 62.2453 239.813 62.4542C240.429 62.9765 240.923 63.4988 241.416 63.9167C241.909 64.439 242.403 64.9613 242.773 65.5881C243.019 65.5881 243.513 65.2747 244.252 64.8568C244.992 64.439 245.732 63.9167 246.596 63.3944C247.459 62.8721 248.199 62.3498 248.939 61.9319C249.556 61.5141 249.926 61.3051 250.172 61.0962C250.419 60.9917 250.542 60.8873 250.912 60.8873C251.405 60.365 251.775 60.365 252.022 60.365Z" fill="#C89F9C"/>
<path d="M265.095 60.4692C265.342 60.2603 265.589 60.1558 265.712 60.2603C265.835 60.3647 265.958 60.4692 265.958 60.6781C266.082 60.8871 266.082 60.9915 266.082 61.2004C266.082 61.5138 265.958 61.8272 265.835 62.1406C265.712 62.454 265.588 62.6629 265.588 62.7674C265.219 63.6031 264.602 64.4388 263.739 65.2744C262.875 66.1101 261.889 66.7369 260.779 67.2592C259.669 67.7815 258.436 67.9905 257.079 67.886C255.229 67.6771 253.749 67.1548 252.762 66.1101C251.776 65.0655 250.913 63.9164 250.296 62.454C249.803 60.9915 249.433 59.6335 249.186 58.2755C248.693 54.9327 248.569 51.4855 248.693 48.0382C248.693 47.2025 248.816 46.3668 248.816 45.5312C248.816 45.2178 248.816 44.9044 248.816 44.6955C248.816 44.1731 248.569 43.8598 247.953 43.8598C247.336 43.8598 246.719 43.8598 246.103 43.8598C245.363 43.8598 244.746 43.8598 244.006 43.8598C243.883 43.8598 243.76 43.8598 243.636 43.8598C243.143 43.8598 242.65 43.8598 242.28 43.6508C242.033 43.5464 241.91 43.4419 241.786 43.3374C241.663 43.233 241.54 43.0241 241.54 42.8151C241.54 42.6062 241.663 42.5018 241.786 42.3973C241.91 42.2928 242.156 42.1884 242.403 42.1884C243.266 42.1884 244.13 42.1884 244.87 42.1884C245.363 42.1884 245.856 42.1884 246.349 42.1884C246.966 42.1884 247.706 42.1884 248.323 42.0839C248.693 42.0839 248.939 41.875 248.939 41.5616C249.063 41.1438 249.063 40.7259 249.063 40.3081C249.186 38.9501 249.309 37.5921 249.433 36.2341C249.556 35.2939 249.556 34.3537 249.679 33.518V33.4136C249.679 33.2046 249.679 32.9957 249.679 32.8913C249.926 32.16 250.543 31.7422 251.529 31.7422C252.392 31.8466 252.886 32.2645 253.009 32.9957C253.009 33.518 253.009 33.9359 253.009 34.4582C253.009 34.6671 253.009 34.876 253.009 35.085C253.009 35.6073 252.886 36.2341 252.886 36.7564C252.762 38.0099 252.639 39.2634 252.639 40.6214C252.639 41.3527 252.639 41.7705 252.886 41.875C253.132 42.0839 253.626 42.0839 254.489 42.0839C256.092 42.0839 257.696 42.0839 259.299 42.0839C260.409 42.0839 261.642 42.0839 262.752 42.0839C262.875 42.0839 262.999 42.0839 263.122 42.0839C263.369 42.0839 263.615 42.0839 263.985 42.0839C264.232 42.0839 264.479 42.1884 264.725 42.2928C264.849 42.3973 264.849 42.3973 264.972 42.5018C265.095 42.6062 265.095 42.7107 265.095 42.8151C265.095 42.9196 265.095 43.0241 264.972 43.1285C264.849 43.233 264.849 43.233 264.725 43.3374C264.232 43.5464 263.615 43.6508 263.122 43.6508C262.999 43.6508 262.875 43.6508 262.752 43.6508C261.025 43.6508 259.299 43.6508 257.572 43.6508C256.586 43.6508 255.599 43.6508 254.736 43.6508C254.612 43.6508 254.612 43.6508 254.612 43.6508C254.119 43.6508 253.749 43.6508 253.256 43.6508C252.762 43.7553 252.516 43.9642 252.392 44.2776C252.269 44.4865 252.269 44.6955 252.269 44.9044C252.146 47.0981 252.146 49.1873 252.146 51.381C252.146 53.5747 252.269 55.664 252.639 57.8577C252.886 59.5291 253.379 61.2004 254.242 62.7674C254.736 63.6031 255.229 64.3343 255.846 64.7521C256.462 65.2744 257.202 65.4834 257.942 65.3789C259.422 65.17 260.532 64.7521 261.272 64.1254C262.012 63.4986 262.752 62.7674 263.245 61.9317C263.985 61.6183 264.479 60.9915 265.095 60.4692Z" fill="#C89F9C"/>
<path d="M281.251 60.5772C281.374 60.4728 281.621 60.3683 281.868 60.2638C282.238 60.1594 282.484 60.0549 282.731 60.0549C282.978 60.0549 283.224 60.1594 283.348 60.3683C283.471 60.4728 283.471 60.6817 283.348 60.7862C283.348 60.8906 283.224 60.9951 283.101 61.0995C282.361 61.7263 281.251 62.4575 279.771 63.0843C278.291 63.8155 276.688 64.3378 275.085 64.8602C273.482 65.3825 272.125 65.6959 271.015 65.9048C269.782 66.1137 268.548 66.1137 267.315 66.0092C265.712 65.8003 264.602 65.278 263.862 64.3378C263.122 63.3977 262.752 62.3531 262.999 61.204C263.245 59.9504 263.862 58.9058 265.095 58.0701C266.205 57.3389 267.562 57.0255 269.165 57.2344C270.028 57.3389 270.892 57.6523 271.632 58.0701C272.495 58.5924 272.865 59.2192 272.742 59.9505C272.618 60.6817 272.125 61.204 271.262 61.6218C270.768 61.8308 270.275 61.9352 269.658 62.0397C269.042 62.0397 268.425 62.0397 267.562 62.0397C267.562 62.0397 267.438 62.0397 267.315 62.0397C267.192 62.0397 267.192 62.0397 267.068 62.0397C266.822 62.0397 266.699 62.1441 266.575 62.2486C266.452 62.3531 266.452 62.4575 266.575 62.6665C266.945 63.6066 267.808 64.0245 269.165 64.1289C270.398 64.1289 271.878 63.92 273.482 63.5022C275.085 63.0843 276.565 62.562 278.045 61.9352C279.401 61.5174 280.511 60.9951 281.251 60.5772ZM267.438 59.4281C267.192 59.5326 267.068 59.6371 267.068 59.846C266.945 59.9504 266.945 60.1594 266.945 60.2638C266.945 60.3683 266.945 60.4728 266.945 60.4728C266.945 60.4728 267.192 60.5772 267.438 60.5772C267.685 60.5772 268.055 60.5772 268.425 60.5772C268.795 60.5772 269.042 60.4728 269.288 60.3683C269.535 60.2638 269.535 60.0549 269.535 59.846C269.412 59.5326 269.165 59.3237 268.672 59.2192C268.178 59.2192 267.808 59.2192 267.438 59.4281Z" fill="#C89F9C"/>
<path d="M297.53 60.7853C298.147 60.3675 298.64 60.263 299.01 60.4719C299.38 60.7853 299.38 61.3076 299.01 62.0389C298.147 63.5013 296.913 64.9638 295.557 66.2174C294.2 67.4709 292.474 68.5155 290.747 69.0378C290.007 69.2467 289.144 69.3512 288.404 69.3512C287.664 69.3512 286.801 69.2467 286.061 69.1423C285.321 69.0378 284.704 68.7244 284.211 68.3066C283.717 67.8887 283.224 67.4709 282.854 66.9486C281.744 65.1727 281.004 62.6656 280.758 59.3229C280.511 55.9801 280.388 52.4284 280.634 48.4588C280.881 44.4893 281.251 40.7286 281.744 37.1769C282.237 33.6252 282.854 30.5958 283.347 28.2977C283.594 27.3575 283.964 26.4174 284.581 25.4772C285.197 24.5371 286.061 24.1192 287.294 24.2237C288.404 24.2237 289.267 24.6415 289.637 25.5817C290.13 26.7307 290.377 27.8798 290.377 29.1334C290.624 31.9539 290.5 34.7743 290.13 37.5948C289.76 40.3108 289.267 42.8179 288.65 45.2205C288.034 47.6231 287.417 49.9213 286.801 52.2194C285.937 54.9355 285.197 57.8604 284.457 60.8898C284.457 61.2032 284.581 61.5166 284.581 61.7255C284.704 62.5612 284.827 63.2924 284.951 63.9192C285.197 64.546 285.567 65.2772 286.184 66.2174C286.801 67.053 287.541 67.4709 288.404 67.5754C289.267 67.5754 290.254 67.3664 291.117 66.9486C292.104 66.5307 292.844 65.904 293.707 65.2772C294.447 64.6504 295.064 64.0236 295.557 63.5013C295.68 63.3969 295.927 63.0835 296.173 62.6656C296.543 62.2478 296.79 61.83 297.16 61.5166C297.16 61.0987 297.407 60.8898 297.53 60.7853ZM283.841 51.9061C284.211 51.0704 284.581 49.8168 284.951 48.041C285.321 46.2651 285.691 44.2803 285.937 42.0866C286.307 39.893 286.431 37.8037 286.677 35.8189C286.801 33.8342 286.924 32.2672 286.801 31.0137C286.801 29.8646 286.554 29.3423 286.307 29.4468C285.814 31.1182 285.567 32.6851 285.444 34.1476C285.321 34.8788 285.197 36.0279 285.074 37.4903C284.704 40.1019 284.457 42.8179 284.087 45.7428C283.841 48.6677 283.717 50.757 283.841 51.9061Z" fill="#C89F9C"/>
<path d="M313.316 60.7853C313.933 60.3675 314.426 60.263 314.796 60.4719C315.166 60.7853 315.166 61.3076 314.796 62.0389C313.933 63.5013 312.699 64.9638 311.343 66.2174C309.986 67.4709 308.26 68.5155 306.533 69.0378C305.793 69.2467 304.93 69.3512 304.19 69.3512C303.45 69.3512 302.587 69.2467 301.847 69.1423C301.107 69.0378 300.49 68.7244 299.997 68.3066C299.503 67.8887 299.01 67.4709 298.64 66.9486C297.53 65.1727 296.79 62.6656 296.544 59.3229C296.297 55.9801 296.174 52.4284 296.42 48.4588C296.667 44.4893 297.037 40.7286 297.53 37.1769C298.023 33.6252 298.64 30.5958 299.133 28.2977C299.38 27.3575 299.75 26.4174 300.367 25.4772C300.983 24.5371 301.847 24.1192 303.08 24.2237C304.19 24.2237 305.053 24.6415 305.423 25.5817C305.916 26.7307 306.163 27.8798 306.163 29.1334C306.41 31.9539 306.286 34.7743 305.916 37.5948C305.546 40.3108 305.053 42.8179 304.436 45.2205C303.82 47.6231 303.203 49.9213 302.587 52.2194C301.723 54.9355 300.983 57.8604 300.243 60.8898C300.243 61.2032 300.367 61.5166 300.367 61.7255C300.49 62.5612 300.613 63.2924 300.737 63.9192C300.983 64.546 301.353 65.2772 301.97 66.2174C302.587 67.053 303.327 67.4709 304.19 67.5754C305.053 67.5754 306.04 67.3664 306.903 66.9486C307.89 66.5307 308.63 65.904 309.493 65.2772C310.233 64.6504 310.85 64.0236 311.343 63.5013C311.466 63.3969 311.713 63.0835 311.959 62.6656C312.329 62.2478 312.576 61.83 312.946 61.5166C312.946 61.2032 313.193 60.8898 313.316 60.7853ZM299.627 51.9061C299.997 51.0704 300.367 49.8168 300.737 48.041C301.107 46.2651 301.477 44.2803 301.723 42.0866C302.093 39.893 302.217 37.8037 302.463 35.8189C302.587 33.8342 302.71 32.2672 302.587 31.0137C302.587 29.8646 302.34 29.3423 302.093 29.4468C301.6 31.1182 301.353 32.6851 301.23 34.1476C301.107 34.8788 300.983 36.0279 300.86 37.4903C300.49 40.1019 300.243 42.8179 299.873 45.7428C299.627 48.6677 299.503 50.757 299.627 51.9061Z" fill="#C89F9C"/>
<path d="M326.759 60.4728C326.882 60.5773 327.005 60.6817 327.005 60.8907C327.005 61.0996 326.882 61.2041 326.759 61.413C325.895 62.5621 324.909 63.5022 323.922 64.4424C322.935 65.2781 321.702 66.0093 320.469 66.4271C319.236 66.845 317.879 66.9495 316.276 66.7405C315.166 66.6361 314.426 66.3227 313.932 65.8004C313.439 65.3825 312.946 64.6513 312.699 63.8156C312.329 62.4576 312.206 61.0996 312.453 59.6371C312.699 58.8014 313.193 58.3836 314.302 58.3836C315.166 58.3836 315.659 58.697 315.782 59.4282C315.782 59.9505 315.782 60.5773 315.782 61.0996C315.782 61.204 315.782 61.3085 315.782 61.3085C315.782 62.8755 316.029 63.9201 316.646 64.4424C317.262 64.9647 318.126 65.1736 319.112 64.8602C320.099 64.5468 321.209 64.0245 322.442 62.9799C322.565 62.8754 322.812 62.6665 322.935 62.4576C323.182 62.2487 323.429 62.0398 323.675 61.8308C324.045 61.5174 324.292 61.2041 324.539 60.9951C325.279 60.3684 326.019 60.1594 326.759 60.4728ZM314.056 55.772C313.193 55.6676 312.823 55.3542 312.699 54.623C312.576 54.1006 312.699 53.5783 313.069 53.056C313.316 52.6382 313.809 52.3248 314.302 52.2203C314.919 52.0114 315.412 52.1159 316.029 52.3248C316.276 52.4293 316.399 52.5337 316.399 52.7426C316.522 52.9516 316.522 53.056 316.522 53.1605C316.399 54.9363 315.536 55.8765 314.056 55.772Z" fill="#C89F9C"/>
<path d="M45.5499 94.9855V90.103H48.9105C49.8376 90.103 50.5329 90.2944 50.9964 90.7731C51.46 91.2518 51.8076 91.8262 51.8076 92.4964C51.8076 93.2622 51.5758 93.8367 50.9964 94.3153C50.417 94.794 49.7217 94.9855 48.9105 94.9855H45.5499ZM53.43 92.5921C53.43 91.539 52.9664 90.6774 52.0394 89.9115C51.1123 89.2413 50.0694 88.8584 48.7946 88.8584H44.0435V101.017H45.5499V96.2301H48.7946C50.0694 96.2301 51.2282 95.8471 52.0394 95.177C52.9664 94.5068 53.43 93.6452 53.43 92.5921Z" fill="#C89F9C"/>
<path d="M56.4428 99.9604C56.0952 99.7689 55.7475 99.386 55.6316 98.9073H54.0093C54.3569 100.535 55.6316 101.301 57.8334 101.301C58.4128 101.301 58.8764 101.301 59.3399 101.205C59.8034 101.109 60.1511 100.918 60.4987 100.726C61.194 100.343 61.5417 99.6732 61.5417 98.8115C61.5417 97.9499 61.0781 97.3755 60.0352 96.9926C59.5717 96.8011 59.224 96.7053 58.6446 96.6096C58.1811 96.5139 57.7175 96.4181 57.254 96.3224C56.7905 96.2267 56.4428 96.0352 56.2111 95.9395C55.9793 95.748 55.7475 95.5565 55.7475 95.1736C55.7475 94.7906 55.9793 94.5034 56.3269 94.4077C56.6746 94.2162 57.0222 94.1205 57.4858 94.1205C57.9493 94.1205 58.4128 94.2162 58.6446 94.312C58.9922 94.5034 59.224 94.7906 59.3399 95.1736H60.9622C60.7305 94.4077 60.3828 93.8333 59.8034 93.5461C59.224 93.2589 58.4128 93.0674 57.4858 93.0674C56.5587 93.0674 55.7475 93.2589 55.0522 93.6418C54.3569 94.0247 54.0093 94.5992 54.0093 95.4608C54.0093 95.8437 54.1252 96.1309 54.3569 96.4181C54.5887 96.7054 54.9363 96.9926 55.5158 97.0883C55.9793 97.2798 56.4428 97.3755 56.9063 97.4712C57.3699 97.567 57.8334 97.6627 58.2969 97.7584C59.224 98.0457 59.8034 98.4286 59.8034 98.9073C59.8034 99.7689 59.1081 100.152 57.7175 100.152C57.3699 100.248 56.9064 100.152 56.4428 99.9604Z" fill="#C89F9C"/>
<path d="M65.0181 90.4805C64.7863 90.2891 64.5546 90.2891 64.3228 90.2891C64.091 90.2891 63.8593 90.3848 63.6275 90.4805C63.3957 90.672 63.3958 90.8635 63.3958 91.0549C63.3958 91.2464 63.5116 91.4379 63.6275 91.6294C63.7434 91.8208 64.091 91.8208 64.3228 91.8208C64.5546 91.8208 64.7863 91.7251 65.0181 91.6294C65.134 91.4379 65.2499 91.2464 65.2499 91.0549C65.2499 90.8635 65.134 90.672 65.0181 90.4805ZM65.0181 101.011V93.1611H63.5116V101.011H65.0181Z" fill="#C89F9C"/>
<path d="M76.9538 96.0352C76.6061 95.1736 76.0267 94.4077 75.2156 93.929C74.2885 93.3546 73.3614 93.0674 72.3185 93.0674C70.9279 93.0674 69.7691 93.4503 68.842 94.312C67.9149 95.0778 67.4514 96.0352 67.4514 97.184C67.4514 98.3329 67.9149 99.2902 68.842 100.056C69.3055 100.439 69.7691 100.726 70.3485 100.918C70.9279 101.109 71.5073 101.205 72.0867 101.205C72.6661 101.205 73.2455 101.109 73.7091 101.013C75.2156 100.535 76.2585 99.7689 76.8379 98.4286H75.0997C74.752 98.9073 74.4044 99.1945 73.9408 99.4817C73.3614 99.7689 72.8979 99.8646 72.3185 99.8646C71.3914 99.8646 70.5802 99.5774 70.0008 99.003C69.3055 98.4286 69.0738 97.7585 69.0738 96.9926C69.0738 96.2267 69.4214 95.5565 70.0008 95.0778C70.3485 94.7906 70.6961 94.5992 71.0438 94.5034C71.3914 94.4077 71.9708 94.312 72.5503 94.312C73.1297 94.312 73.5932 94.5034 74.1726 94.7906C74.752 95.0778 75.0997 95.4608 75.3314 96.0352H76.9538Z" fill="#C89F9C"/>
<path d="M86.688 97.0903C86.688 97.8562 86.3404 98.5263 85.6451 99.1007C84.9498 99.6752 84.1386 99.9624 83.2116 99.9624C82.2845 99.9624 81.4733 99.6752 80.778 99.1007C80.0827 98.5263 79.7351 97.8562 79.7351 97.0903C79.7351 96.3244 80.0827 95.6543 80.778 95.0798C81.4733 94.5054 82.2845 94.2182 83.2116 94.2182C84.1386 94.2182 84.9498 94.5054 85.6451 95.0798C86.4563 95.6543 86.688 96.3244 86.688 97.0903ZM88.3104 97.0903C88.3104 95.9415 87.8469 94.9841 86.8039 94.2182C85.8769 93.4523 84.718 92.9736 83.3274 92.9736C81.9369 92.9736 80.778 93.3566 79.851 94.2182C78.9239 94.9841 78.3445 95.9415 78.3445 97.0903C78.3445 98.2391 78.808 99.1965 79.7351 99.9624C80.6621 100.728 81.9369 101.207 83.2116 101.207C84.6022 101.207 85.761 100.824 86.688 100.058C87.731 99.1965 88.3104 98.2391 88.3104 97.0903Z" fill="#C89F9C"/>
<path d="M92.0186 101.111V87.708H90.5121V101.111H92.0186Z" fill="#C89F9C"/>
<path d="M102.68 97.0903C102.68 97.8562 102.333 98.5263 101.637 99.1007C100.942 99.6752 100.131 99.9624 99.2038 99.9624C98.2767 99.9624 97.4655 99.6752 96.7702 99.1007C96.0749 98.5263 95.7273 97.8562 95.7273 97.0903C95.7273 96.3244 96.0749 95.6543 96.7702 95.0798C97.4655 94.5054 98.2767 94.2182 99.2038 94.2182C100.131 94.2182 100.942 94.5054 101.637 95.0798C102.333 95.6543 102.68 96.3244 102.68 97.0903ZM104.187 97.0903C104.187 95.9415 103.723 94.9841 102.68 94.2182C101.753 93.4523 100.594 92.9736 99.2038 92.9736C97.8132 92.9736 96.6544 93.3566 95.7273 94.2182C94.8002 94.9841 94.2208 95.9415 94.2208 97.0903C94.2208 98.2391 94.6844 99.1965 95.6114 99.9624C96.5385 100.728 97.8132 101.207 99.0879 101.207C100.478 101.207 101.637 100.824 102.564 100.058C103.723 99.1965 104.187 98.2391 104.187 97.0903Z" fill="#C89F9C"/>
<path d="M114.152 97.184C114.152 97.9499 113.804 98.6201 113.225 99.1945C112.53 99.7689 111.719 100.056 110.792 100.056C109.864 100.056 109.053 99.7689 108.358 99.1945C107.663 98.6201 107.431 97.9499 107.431 97.184C107.431 96.4181 107.779 95.748 108.358 95.1736C109.053 94.5992 109.864 94.312 110.792 94.312C111.719 94.312 112.53 94.5992 113.225 95.1736C113.804 95.748 114.152 96.4181 114.152 97.184ZM107.431 102.162H105.924C106.156 103.024 106.504 103.694 107.315 104.364C108.242 105.13 109.401 105.513 110.792 105.513C112.182 105.513 113.341 105.13 114.268 104.364C115.195 103.598 115.659 102.641 115.659 101.492V93.2589H114.152V94.5992C114.036 94.5034 114.036 94.4077 113.92 94.312C112.993 93.4503 111.834 93.0674 110.56 93.0674C109.169 93.0674 108.126 93.4503 107.199 94.312C106.388 95.1736 105.924 96.0352 105.924 97.184C105.924 98.3329 106.388 99.1945 107.199 100.056C108.126 100.918 109.169 101.301 110.56 101.301C111.834 101.301 112.993 100.918 113.92 100.056C114.036 99.9604 114.152 99.8646 114.152 99.8646V101.588C114.152 102.354 113.804 103.024 113.109 103.598C112.414 104.173 111.603 104.46 110.676 104.46C109.749 104.46 108.937 104.173 108.242 103.598C107.779 103.12 107.547 102.641 107.431 102.162Z" fill="#C89F9C"/>
<path d="M120.062 90.4805C119.83 90.2891 119.599 90.2891 119.367 90.2891C119.135 90.2891 118.903 90.3848 118.672 90.4805C118.44 90.672 118.44 90.8635 118.44 91.0549C118.44 91.2464 118.556 91.4379 118.672 91.6294C118.787 91.8208 119.135 91.8208 119.367 91.8208C119.599 91.8208 119.83 91.7251 120.062 91.6294C120.178 91.4379 120.294 91.2464 120.294 91.0549C120.41 90.8635 120.294 90.672 120.062 90.4805ZM120.178 101.107V93.2569H118.672V101.107H120.178Z" fill="#C89F9C"/>
<path d="M130.724 97.184C130.724 97.9499 130.376 98.6201 129.797 99.1945C129.102 99.7689 128.406 100.056 127.479 100.056C126.552 100.056 125.741 99.7689 125.046 99.1945C124.35 98.6201 124.119 97.9499 124.119 97.184C124.119 96.4181 124.466 95.748 125.046 95.1736C125.625 94.5992 126.552 94.312 127.479 94.312C128.406 94.312 129.217 94.5992 129.797 95.1736C130.376 95.748 130.724 96.4181 130.724 97.184ZM132.23 101.109V93.2589H130.724V94.5992C130.608 94.5034 130.492 94.4077 130.492 94.312C129.565 93.4503 128.522 93.0674 127.132 93.0674C125.857 93.0674 124.698 93.4503 123.771 94.312C122.96 95.1736 122.496 96.0352 122.496 97.184C122.496 98.3329 122.96 99.1945 123.771 100.056C124.698 100.918 125.741 101.301 127.132 101.301C128.406 101.301 129.565 100.918 130.492 100.056C130.608 99.9604 130.724 99.8646 130.724 99.7689V101.109H132.23Z" fill="#C89F9C"/>
<path d="M154.132 97.375H152.51C152.046 98.1409 151.235 98.811 150.424 99.2897C149.497 99.7684 148.454 99.9598 147.411 99.9598C145.789 99.9598 144.398 99.4812 143.239 98.5238C142.08 97.5664 141.617 96.4176 141.617 95.0773C141.617 93.737 142.196 92.5882 143.239 91.6308C143.703 91.1521 144.398 90.8649 145.093 90.5777C145.789 90.2905 146.484 90.1948 147.179 90.1948C147.875 90.1948 148.454 90.2905 148.917 90.3862C150.54 90.7692 151.699 91.5351 152.51 92.7796H154.132C153.553 91.6308 152.742 90.6734 151.467 90.0033C150.192 89.3331 148.802 88.9502 147.411 88.9502C145.325 88.9502 143.587 89.6204 142.196 90.7692C141.501 91.3436 141.037 92.0137 140.69 92.7796C140.342 93.5455 140.11 94.3114 140.11 95.173C140.11 96.8963 140.806 98.3323 142.196 99.5769C143.587 100.821 145.325 101.396 147.411 101.396C148.917 101.396 150.308 101.013 151.583 100.343C152.626 99.4812 153.553 98.6195 154.132 97.375Z" fill="#C89F9C"/>
<path d="M157.493 101.111V87.708H155.986V101.111H157.493Z" fill="#C89F9C"/>
<path d="M162.012 101.109V93.2583H160.505V101.109H162.012ZM164.561 88.9502H162.707L160.969 91.5351H162.128L164.561 88.9502Z" fill="#C89F9C"/>
<path d="M171.63 101.109H173.137V96.2267C173.137 95.2693 172.789 94.5992 172.326 94.0247C171.978 93.7375 171.63 93.5461 171.283 93.3546C170.819 93.1631 170.356 93.0674 169.66 93.0674C168.965 93.0674 168.386 93.2589 167.922 93.5461C167.458 93.8333 166.995 94.2162 166.763 94.5992V93.2589H165.257V101.109H166.763V97.8542C166.763 96.8968 166.995 96.0352 167.458 95.4608C167.69 95.1736 168.038 94.8864 168.501 94.6949C168.849 94.5034 169.428 94.4077 170.124 94.4077C170.819 94.4077 171.167 94.5992 171.514 94.9821C171.746 95.365 171.978 95.748 171.978 96.3224L171.63 101.109Z" fill="#C89F9C"/>
<path d="M177.193 90.5792C176.961 90.3877 176.729 90.3877 176.497 90.3877C176.266 90.3877 176.034 90.4834 175.802 90.5792C175.57 90.7706 175.57 90.9621 175.57 91.1536C175.57 91.3451 175.686 91.5365 175.802 91.728C175.918 91.9195 176.266 91.9195 176.497 91.9195C176.729 91.9195 176.961 91.8237 177.193 91.728C177.309 91.5365 177.424 91.3451 177.424 91.1536C177.54 90.9621 177.424 90.7706 177.193 90.5792ZM177.309 101.11V93.2598H175.802V101.11H177.309Z" fill="#C89F9C"/>
<path d="M189.129 96.1309C188.781 95.2693 188.202 94.5034 187.391 94.0247C186.464 93.4503 185.536 93.1631 184.494 93.1631C183.103 93.1631 181.944 93.546 181.017 94.4076C180.09 95.1735 179.626 96.1309 179.626 97.2797C179.626 98.4286 180.09 99.3859 181.017 100.152C181.481 100.535 181.944 100.822 182.524 101.013C183.103 101.205 183.682 101.301 184.262 101.301C184.841 101.301 185.421 101.205 185.884 101.109C187.391 100.63 188.434 99.8646 189.013 98.5243H187.275C186.927 99.003 186.579 99.2902 186.116 99.5774C185.536 99.8646 185.073 99.9603 184.494 99.9603C183.566 99.9603 182.755 99.6731 182.176 99.0987C181.481 98.5243 181.249 97.8541 181.249 97.0883C181.249 96.3224 181.596 95.6522 182.176 95.1735C182.524 94.8863 182.871 94.6949 183.219 94.5991C183.566 94.5034 184.146 94.4076 184.725 94.4076C185.305 94.4076 185.768 94.5991 186.348 94.8863C186.927 95.1735 187.275 95.5565 187.506 96.1309H189.129Z" fill="#C89F9C"/>
<path d="M198.746 97.184C198.746 97.9499 198.399 98.6201 197.819 99.1945C197.124 99.7689 196.429 100.056 195.502 100.056C194.575 100.056 193.764 99.7689 193.068 99.1945C192.373 98.6201 192.141 97.9499 192.141 97.184C192.141 96.4181 192.489 95.748 193.068 95.1736C193.764 94.5992 194.575 94.312 195.502 94.312C196.429 94.312 197.24 94.5992 197.819 95.1736C198.399 95.8437 198.746 96.5139 198.746 97.184ZM200.253 101.109V93.2589H198.746V94.5992C198.631 94.5034 198.515 94.4077 198.515 94.312C197.588 93.4503 196.545 93.0674 195.154 93.0674C193.879 93.0674 192.721 93.4503 191.794 94.312C190.982 95.1736 190.519 96.0352 190.519 97.184C190.519 98.3329 190.982 99.1945 191.794 100.056C192.721 100.918 193.764 101.301 195.154 101.301C196.429 101.301 197.588 100.918 198.515 100.056C198.631 99.9604 198.746 99.8646 198.746 99.7689V101.109H200.253Z" fill="#C89F9C"/>
<path d="M217.983 97.0883C217.983 96.0352 217.52 95.0778 216.477 94.3119C215.55 93.546 214.391 93.1631 213 93.1631C211.61 93.1631 210.451 93.546 209.524 94.4076C208.597 95.1735 208.017 96.1309 208.017 97.2797C208.017 98.4286 208.481 99.3859 209.408 100.152C209.872 100.535 210.335 100.822 211.03 101.013C211.61 101.205 212.305 101.301 213.232 101.301C214.043 101.301 214.855 101.109 215.666 100.63C216.477 100.248 217.056 99.5774 217.52 98.8115H215.782C215.434 99.1944 215.086 99.4817 214.507 99.6731C214.043 99.8646 213.464 99.9603 213 99.9603C212.189 99.9603 211.494 99.7689 210.799 99.2902C210.103 98.8115 209.756 98.3328 209.64 97.6627H217.983V97.0883ZM216.361 96.6096H209.64C209.756 96.3224 209.872 95.9394 210.103 95.6522C210.799 94.6949 211.726 94.2162 213 94.2162C213.812 94.2162 214.507 94.4076 215.086 94.8863C215.782 95.4607 216.129 95.9394 216.361 96.6096Z" fill="#C89F9C"/>
<path d="M227.138 101.207V95.7503H233.859V101.207H235.366V89.0488H233.859V94.5058H227.138V89.0488H225.632V101.207H227.138Z" fill="#C89F9C"/>
<path d="M245.911 97.184C245.911 97.9499 245.564 98.6201 244.868 99.1945C244.173 99.7689 243.362 100.056 242.435 100.056C241.508 100.056 240.696 99.7689 240.001 99.1945C239.306 98.6201 238.958 97.9499 238.958 97.184C238.958 96.4181 239.306 95.748 240.001 95.1736C240.696 94.5992 241.508 94.312 242.435 94.312C243.362 94.312 244.173 94.5992 244.868 95.1736C245.564 95.748 245.911 96.4181 245.911 97.184ZM247.534 97.184C247.534 96.0352 247.07 95.0778 246.027 94.312C245.1 93.5461 243.941 93.0674 242.551 93.0674C241.16 93.0674 240.001 93.4503 239.074 94.312C238.147 95.0778 237.568 96.0352 237.568 97.184C237.568 98.3329 238.031 99.2902 238.958 100.056C239.885 100.822 241.16 101.301 242.435 101.301C243.825 101.301 244.984 100.918 245.911 100.152C246.954 99.2902 247.534 98.3329 247.534 97.184Z" fill="#C89F9C"/>
<path d="M251.126 100.056C250.778 99.8646 250.431 99.4817 250.315 99.003H248.692C249.04 100.63 250.315 101.396 252.516 101.396C253.096 101.396 253.559 101.396 254.023 101.301C254.486 101.205 254.834 101.013 255.182 100.822C255.877 100.439 256.225 99.7689 256.225 98.9072C256.225 98.0456 255.761 97.4712 254.718 97.0883C254.255 96.8968 253.907 96.8011 253.328 96.7053C252.864 96.6096 252.401 96.5138 251.937 96.4181C251.474 96.3224 251.126 96.1309 250.894 96.0352C250.662 95.8437 250.431 95.6522 250.431 95.2693C250.431 94.8863 250.662 94.5991 251.01 94.5034C251.358 94.3119 251.705 94.2162 252.169 94.2162C252.632 94.2162 253.096 94.3119 253.328 94.4076C253.675 94.5991 253.907 94.8863 254.023 95.2693H255.645C255.414 94.5034 255.066 93.929 254.487 93.6418C253.907 93.3546 253.096 93.1631 252.169 93.1631C251.242 93.1631 250.431 93.3545 249.735 93.7375C249.04 94.1204 248.692 94.6949 248.692 95.5565C248.692 95.9394 248.808 96.2266 249.04 96.5138C249.272 96.8011 249.619 97.0883 250.199 97.184C250.662 97.3755 251.126 97.4712 251.589 97.5669C252.053 97.6627 252.516 97.7584 252.98 97.8541C253.907 98.1414 254.487 98.5243 254.487 99.003C254.487 99.8646 253.791 100.248 252.401 100.248C251.937 100.343 251.474 100.343 251.126 100.056Z" fill="#C89F9C"/>
<path d="M259.585 105.704V99.8646C259.701 99.9603 259.817 100.056 259.817 100.152C260.744 101.013 261.787 101.396 263.178 101.396C264.452 101.396 265.611 101.013 266.538 100.152C267.349 99.3859 267.813 98.4286 267.813 97.2797C267.813 96.2266 267.349 95.2693 266.538 94.4076C265.611 93.546 264.568 93.1631 263.178 93.1631C261.903 93.1631 260.744 93.546 259.817 94.4076C259.701 94.5034 259.585 94.5991 259.585 94.6949V93.3546H258.079V105.704H259.585ZM266.307 97.2797C266.307 98.0456 265.959 98.7158 265.379 99.2902C264.684 99.8646 263.989 100.152 262.946 100.152C262.019 100.152 261.208 99.8646 260.512 99.2902C259.817 98.7158 259.585 98.0456 259.585 97.2797C259.585 96.5138 259.933 95.8437 260.512 95.2693C261.208 94.6949 262.019 94.4076 262.946 94.4076C263.873 94.4076 264.684 94.6949 265.379 95.2693C265.959 95.8437 266.307 96.5138 266.307 97.2797Z" fill="#C89F9C"/>
<path d="M271.637 90.6739C271.405 90.4824 271.174 90.4824 270.942 90.4824C270.71 90.4824 270.478 90.5782 270.247 90.6739C270.015 90.8654 270.015 91.0568 270.015 91.2483C270.015 91.4398 270.131 91.6312 270.247 91.8227C270.363 92.0142 270.71 92.0142 270.942 92.0142C271.174 92.0142 271.405 91.9185 271.637 91.8227C271.753 91.6312 271.869 91.4398 271.869 91.2483C271.869 90.9611 271.753 90.7696 271.637 90.6739ZM271.637 101.205V93.3545H270.131V101.205H271.637Z" fill="#C89F9C"/>
<path d="M273.491 94.5014H275.925V101.203H277.431V94.5014H279.749V93.3526H277.431V90.2891H275.925V93.3526H273.491V94.5014Z" fill="#C89F9C"/>
<path d="M289.019 97.2797C289.019 98.0456 288.672 98.7158 288.092 99.2902C287.397 99.8646 286.702 100.152 285.774 100.152C284.847 100.152 284.036 99.8646 283.341 99.2902C282.646 98.7158 282.414 98.0456 282.414 97.2797C282.414 96.5138 282.762 95.8437 283.341 95.2693C284.036 94.6949 284.847 94.4076 285.774 94.4076C286.702 94.4076 287.513 94.6949 288.092 95.2693C288.672 95.8437 289.019 96.5138 289.019 97.2797ZM290.526 101.205V93.3546H289.019V94.6949C288.903 94.5991 288.787 94.5034 288.787 94.4076C287.86 93.546 286.817 93.1631 285.427 93.1631C284.152 93.1631 282.993 93.546 282.066 94.4076C281.255 95.2693 280.792 96.1309 280.792 97.2797C280.792 98.4286 281.255 99.2902 282.066 100.152C282.993 101.013 284.036 101.396 285.427 101.396C286.702 101.396 287.86 101.013 288.787 100.152C288.903 100.056 289.019 99.9603 289.019 99.8646V101.205H290.526Z" fill="#C89F9C"/>
<path d="M294.929 101.205V87.8018H293.423V101.205H294.929Z" fill="#C89F9C"/>
<path d="M305.359 97.2797C305.359 98.0456 305.011 98.7158 304.432 99.2902C303.737 99.8646 303.041 100.152 302.114 100.152C301.187 100.152 300.376 99.8646 299.681 99.2902C298.985 98.7158 298.754 98.0456 298.754 97.2797C298.754 96.5138 299.101 95.8437 299.681 95.2693C300.376 94.6949 301.187 94.4076 302.114 94.4076C303.041 94.4076 303.852 94.6949 304.432 95.2693C305.011 95.8437 305.359 96.5138 305.359 97.2797ZM306.865 101.205V93.3546H305.359V94.6949C305.243 94.5991 305.127 94.5034 305.127 94.4076C304.2 93.546 303.157 93.1631 301.767 93.1631C300.492 93.1631 299.333 93.546 298.406 94.4076C297.595 95.2693 297.131 96.1309 297.131 97.2797C297.131 98.4286 297.595 99.2902 298.406 100.152C299.333 101.013 300.376 101.396 301.767 101.396C303.041 101.396 304.2 101.013 305.127 100.152C305.243 100.056 305.359 99.9603 305.359 99.8646V101.205H306.865Z" fill="#C89F9C"/>
<path d="M314.63 94.9821V93.3546C314.282 93.2588 314.05 93.1631 313.703 93.1631C312.66 93.1631 311.848 93.6418 311.385 94.5991L311.269 94.8863V93.2588H309.763V101.109H311.269V97.184C311.269 96.5138 311.501 95.9394 311.848 95.4607C312.08 95.1735 312.312 94.9821 312.544 94.7906C312.776 94.5991 313.123 94.5034 313.587 94.5034C313.934 94.5991 314.282 94.7906 314.63 94.9821Z" fill="#C89F9C"/>
<path d="M129.608 123.993H128.015C127.525 124.783 126.79 125.375 125.932 125.769C125.074 126.263 124.094 126.46 122.991 126.46C121.398 126.46 120.05 125.967 118.947 125.079C117.845 124.191 117.354 123.105 117.354 121.823C117.354 120.54 117.845 119.455 118.947 118.468C119.438 118.073 120.05 117.678 120.786 117.481C121.521 117.185 122.133 117.086 122.869 117.086C123.481 117.086 124.094 117.185 124.584 117.284C126.177 117.678 127.28 118.369 128.015 119.553H129.608C129.118 118.468 128.138 117.58 127.035 116.889C125.81 116.198 124.462 115.902 122.991 115.902C121.031 115.902 119.315 116.494 117.845 117.678C117.232 118.172 116.742 118.862 116.374 119.553C116.007 120.244 115.884 121.033 115.884 121.823C115.884 123.5 116.619 124.881 117.967 125.967C119.315 127.151 121.031 127.743 123.114 127.743C124.584 127.743 125.932 127.447 127.157 126.756C128.138 126.065 128.996 125.177 129.608 123.993Z" fill="#C89F9C"/>
<path d="M132.917 121.825V117.088H136.225C137.083 117.088 137.818 117.286 138.309 117.779C138.799 118.272 139.044 118.766 139.044 119.456C139.044 120.147 138.799 120.739 138.186 121.134C137.573 121.627 136.961 121.825 136.103 121.825H132.917ZM140.637 119.456C140.637 118.47 140.147 117.582 139.289 116.99C138.431 116.299 137.328 116.003 136.103 116.003H131.446V127.547H132.917V123.009H134.632L138.921 127.547H140.882L136.47 123.009C137.573 123.009 138.554 122.614 139.289 122.022C140.147 121.331 140.637 120.542 140.637 119.456Z" fill="#C89F9C"/>
<path d="M144.067 121.823V117.086H147.376C148.234 117.086 148.969 117.284 149.459 117.777C149.949 118.27 150.194 118.764 150.194 119.454C150.194 120.145 149.949 120.737 149.337 121.132C148.724 121.527 148.111 121.823 147.253 121.823H144.067ZM151.787 119.454C151.787 118.468 151.297 117.58 150.439 116.889C149.582 116.198 148.479 115.902 147.253 115.902H142.597V127.447H144.067V122.908H147.131C148.356 122.908 149.459 122.612 150.317 121.921C151.297 121.329 151.787 120.54 151.787 119.454Z" fill="#C89F9C"/>
<path d="M165.022 124.29V123.304H157.914V124.29H165.022Z" fill="#C89F9C"/>
<path d="M177.888 117.382C178.623 117.678 178.991 118.27 179.358 118.961C179.726 119.849 179.971 120.836 179.971 121.823C179.971 122.02 179.971 122.316 179.849 122.711C179.726 123.993 179.236 124.98 178.623 125.671C178.133 126.263 177.398 126.559 176.663 126.559C175.805 126.559 175.07 126.263 174.457 125.671C174.212 125.375 173.967 125.079 173.844 124.783C173.722 124.487 173.599 124.092 173.477 123.697C173.354 123.401 173.354 123.007 173.354 122.711C173.354 122.415 173.354 122.02 173.354 121.625C173.354 121.231 173.477 120.639 173.599 120.047C173.722 119.751 173.844 119.356 173.967 119.06C174.089 118.764 174.334 118.369 174.579 118.172C174.825 117.876 175.07 117.678 175.437 117.481C175.805 117.284 176.172 117.185 176.663 117.185C177.153 117.086 177.643 117.185 177.888 117.382ZM176.785 127.743C178.501 127.743 179.726 127.052 180.584 125.77C181.319 124.684 181.564 123.401 181.564 121.823C181.564 120.244 181.197 118.961 180.584 117.876C179.726 116.494 178.501 115.804 176.785 115.804C175.07 115.804 173.844 116.494 172.987 117.876C172.374 118.961 172.006 120.244 172.006 121.823C172.006 123.401 172.374 124.684 172.987 125.77C173.844 127.052 175.07 127.743 176.785 127.743Z" fill="#C89F9C"/>
<path d="M185.485 127.546H186.956V115.804L183.402 116.1V117.086H185.485V127.546Z" fill="#C89F9C"/>
<path d="M198.719 114.817H197.126L188.916 130.999H190.509L198.719 114.817Z" fill="#C89F9C"/>
<path d="M202.273 127.644H203.743V115.902L200.19 116.198V117.185H202.273V127.644Z" fill="#C89F9C"/>
<path d="M210.36 121.724C211.218 121.724 211.953 121.921 212.566 122.415C213.179 122.908 213.424 123.5 213.424 124.092C213.424 124.783 213.179 125.375 212.566 125.868C211.953 126.361 211.218 126.559 210.36 126.559C209.503 126.559 208.767 126.361 208.155 125.868C207.542 125.375 207.297 124.783 207.297 124.092C207.297 123.401 207.542 122.809 208.155 122.415C208.767 121.921 209.503 121.724 210.36 121.724ZM210.36 116.988C210.973 116.988 211.586 117.185 212.076 117.58C212.566 117.974 212.811 118.369 212.811 118.961C212.811 119.553 212.566 119.948 212.076 120.343C211.586 120.737 210.973 120.935 210.36 120.935C209.625 120.935 209.012 120.737 208.645 120.343C208.155 119.948 207.91 119.455 207.91 118.961C207.91 118.369 208.155 117.974 208.645 117.58C209.135 117.185 209.625 116.988 210.36 116.988ZM210.36 127.743C211.708 127.743 212.811 127.447 213.669 126.855C214.036 126.559 214.404 126.164 214.649 125.769C214.894 125.375 215.017 124.881 215.017 124.289C215.017 123.697 214.772 123.204 214.404 122.612C214.036 122.02 213.424 121.625 212.688 121.329C213.791 120.54 214.404 119.751 214.404 118.862C214.404 117.974 214.036 117.284 213.179 116.692C212.443 116.1 211.463 115.902 210.36 115.902C209.135 115.902 208.277 116.198 207.542 116.692C206.807 117.284 206.317 117.974 206.317 118.862C206.317 119.751 206.929 120.639 208.032 121.329C207.297 121.625 206.684 122.119 206.194 122.612C205.826 123.204 205.581 123.697 205.581 124.289C205.581 125.375 206.071 126.164 206.929 126.855C207.91 127.447 209.012 127.743 210.36 127.743Z" fill="#C89F9C"/>
<path d="M221.144 121.724C222.001 121.724 222.737 121.921 223.349 122.415C223.962 122.908 224.207 123.5 224.207 124.092C224.207 124.783 223.962 125.375 223.349 125.868C222.737 126.361 222.001 126.559 221.144 126.559C220.286 126.559 219.551 126.361 218.938 125.868C218.325 125.375 218.08 124.783 218.08 124.092C218.08 123.401 218.325 122.809 218.938 122.415C219.551 121.921 220.286 121.724 221.144 121.724ZM221.144 116.988C221.756 116.988 222.369 117.185 222.859 117.58C223.349 117.974 223.594 118.369 223.594 118.961C223.594 119.553 223.349 119.948 222.859 120.343C222.369 120.737 221.756 120.935 221.144 120.935C220.408 120.935 219.796 120.737 219.428 120.343C218.938 119.948 218.693 119.455 218.693 118.961C218.693 118.369 218.938 117.974 219.428 117.58C219.796 117.185 220.408 116.988 221.144 116.988ZM221.144 127.743C222.492 127.743 223.594 127.447 224.452 126.855C224.82 126.559 225.187 126.164 225.433 125.769C225.678 125.375 225.8 124.881 225.8 124.289C225.8 123.697 225.555 123.204 225.187 122.612C224.82 122.02 224.207 121.625 223.472 121.329C224.575 120.54 225.187 119.751 225.187 118.862C225.187 117.974 224.82 117.284 223.962 116.692C223.227 116.1 222.247 115.902 221.144 115.902C219.918 115.902 219.061 116.198 218.325 116.692C217.59 117.284 217.1 117.974 217.1 118.862C217.1 119.751 217.713 120.639 218.815 121.329C218.08 121.625 217.468 122.119 216.977 122.612C216.61 123.204 216.365 123.697 216.365 124.289C216.365 125.375 216.855 126.164 217.713 126.855C218.693 127.447 219.796 127.743 221.144 127.743Z" fill="#C89F9C"/>
<path d="M230.089 120.344L231.069 117.286H236.216V116.102H229.844L228.128 121.331L229.721 121.923C230.334 121.528 231.069 121.331 231.927 121.331C232.785 121.331 233.52 121.627 234.133 122.121C234.745 122.713 235.113 123.305 235.113 123.995C235.113 124.785 234.745 125.377 234.133 125.87C233.765 126.067 233.397 126.265 233.03 126.462C232.662 126.561 232.172 126.659 231.559 126.659C230.947 126.659 230.334 126.462 229.844 126.166C229.231 125.87 228.864 125.475 228.619 124.883L227.148 125.278C227.516 126.067 228.128 126.659 228.864 127.153C229.721 127.646 230.702 127.843 231.682 127.843C233.03 127.843 234.255 127.449 235.113 126.659C236.093 125.87 236.583 124.982 236.583 123.897C236.583 122.811 236.093 121.923 235.236 121.232C234.745 120.936 234.255 120.64 233.765 120.443C233.152 120.246 232.54 120.147 231.927 120.147C231.559 120.048 230.824 120.147 230.089 120.344Z" fill="#C89F9C"/>
<path d="M240.75 127.644H242.22V115.902L238.667 116.198V117.185H240.75V127.644Z" fill="#C89F9C"/>
</g>
<defs>
<clipPath id="clip0_2813_370">
<rect width="340" height="133" fill="white"/>
</clipPath>
</defs>
</svg>
