<?xml version="1.0" standalone="no"?>
<!DOCTYPE svg PUBLIC "-//W3C//DTD SVG 20010904//EN"
 "http://www.w3.org/TR/2001/REC-SVG-20010904/DTD/svg10.dtd">
<svg version="1.0" xmlns="http://www.w3.org/2000/svg"
 width="85.000000pt" height="85.000000pt" viewBox="0 0 85.000000 85.000000"
 preserveAspectRatio="xMidYMid meet">
<metadata>
Created by potrace 1.14, written by Peter Selinger 2001-2017
</metadata>
<g transform="translate(0.000000,85.000000) scale(0.100000,-0.100000)"
fill="#000000" stroke="none">
<path d="M280 813 c-27 -10 -49 -35 -55 -62 -4 -21 -12 -26 -37 -27 -39 -2
-70 -38 -65 -76 3 -22 0 -28 -16 -28 -24 0 -57 -36 -57 -62 0 -11 5 -28 10
-38 8 -14 5 -27 -9 -52 -19 -31 -19 -35 -4 -65 8 -18 20 -33 25 -33 6 0 3 -12
-7 -26 -26 -40 -13 -88 30 -108 21 -11 32 -22 29 -30 -6 -16 22 -75 36 -77 6
-1 16 -2 23 -3 6 -1 22 1 35 6 15 5 22 4 22 -6 0 -23 38 -48 76 -49 28 -1 42
5 60 26 l23 26 -2 322 -2 321 -30 24 c-29 23 -54 28 -85 17z"/>
<path d="M441 794 l-31 -26 0 -311 c0 -172 3 -321 6 -332 6 -23 35 -44 67 -50
25 -5 75 23 83 47 4 13 10 15 28 8 15 -5 33 -3 54 7 31 15 36 25 34 71 -1 15
5 22 18 22 45 0 72 77 40 115 -9 11 -7 19 9 36 26 28 27 69 2 96 -11 12 -16
24 -11 29 5 5 11 21 14 36 6 33 -26 78 -55 78 -15 0 -19 5 -14 19 13 42 -36
92 -82 83 -6 -1 -16 13 -23 32 -21 66 -86 85 -139 40z"/>
</g>
</svg>
