<svg width="340" height="100" viewBox="0 0 340 100" fill="none" xmlns="http://www.w3.org/2000/svg">
<g clip-path="url(#clip0_2813_370)">
<path d="M49.6422 47.9515C50.3822 48.056 50.7522 48.1604 50.7522 48.4738C50.7522 48.7872 50.6288 48.9961 50.2589 49.3095C49.8889 49.6229 49.6422 49.8318 49.2723 49.9363C48.039 50.6675 46.8057 51.3988 45.6958 52.2344C44.5858 53.0701 43.4759 53.9058 42.3659 54.7415C41.3793 55.4728 40.886 56.4129 40.7627 57.4575C40.516 58.92 40.2693 60.6959 39.776 62.7851C39.2827 64.8743 38.7894 67.068 38.0495 69.2617C37.3095 71.4554 36.4462 73.5447 35.4596 75.425C34.473 77.3053 33.2397 78.7678 32.0064 79.7079C31.3898 80.1258 30.6498 80.4392 29.9099 80.5436C29.1699 80.6481 28.4299 80.6481 27.69 80.4392C26.95 80.2302 26.3334 79.9168 26.0867 79.499C25.7167 79.0812 25.4701 78.5588 25.4701 77.9321C25.2234 76.2607 25.4701 74.3804 26.21 72.2911C26.95 70.2019 27.9366 68.2171 29.0466 66.2323C30.1565 64.2476 31.2665 62.5762 32.3764 61.3226C33.6097 59.6513 35.0896 58.0843 36.5695 56.6219C37.4328 55.8906 37.8028 54.9505 37.9261 53.9058C38.1728 52.2345 38.2961 49.6229 38.5428 46.0712C38.7894 42.5195 38.9128 38.7589 38.9128 34.6849C38.9128 30.6109 38.6661 26.8502 38.2961 23.2985C37.9261 19.8513 37.1862 17.2397 36.1996 15.5683C35.9529 15.1505 35.5829 14.7326 35.2129 14.4193C34.7196 13.8969 34.103 13.7925 33.363 14.1059C32.6231 14.4192 31.8831 14.7326 31.2665 15.1505C29.4165 16.404 27.9366 17.8665 26.8267 19.4334C25.5934 21.0004 24.7301 22.7762 24.3601 24.761C23.9901 26.2235 23.9901 27.6859 24.3601 29.2528C24.6068 30.193 25.1001 31.0287 25.7167 31.7599C26.3334 32.4912 27.32 32.909 28.4299 33.2224C28.5533 33.2224 28.5533 33.2224 28.5533 33.2224C28.7999 33.3269 28.9232 33.3268 29.1699 33.4313C29.4165 33.5358 29.4165 33.6402 29.5399 33.9536C29.5399 34.3715 29.0466 34.5804 28.1833 34.5804C27.1967 34.6849 26.21 34.4759 25.3467 34.0581C23.9901 33.3269 23.0035 32.4912 22.2636 31.4465C21.6469 30.4019 21.1536 29.2528 21.0303 27.9993C20.907 26.0145 21.1536 24.1342 21.8936 22.3584C23.3735 18.9111 25.84 16.0907 29.1699 13.7925C30.6498 12.7479 32.2531 12.2256 34.2263 12.1211C36.6929 12.1211 38.4194 12.9568 39.5294 14.8371C40.516 16.404 41.1326 18.8067 41.6259 22.045C42.1193 25.1788 42.3659 28.7305 42.3659 32.4912C42.4892 36.2518 42.3659 39.699 42.2426 43.0418C42.1193 46.2801 41.9959 48.8917 41.7493 50.6675C41.626 51.3988 41.626 51.8166 41.8726 51.9211C41.9959 52.0255 42.4892 51.8166 43.1059 51.3988C43.7225 50.9809 44.3392 50.5631 45.0791 50.1452C45.5724 49.8318 46.0657 49.5184 46.559 49.2051C46.929 48.8917 47.4223 48.6827 48.039 48.3694C48.6556 48.056 49.1489 47.9515 49.6422 47.9515ZM36.5695 62.3673C36.8162 61.2182 36.6929 60.6959 36.4462 60.8003C36.1995 60.9048 35.8296 61.4271 35.2129 62.1583C34.5963 62.8896 33.733 64.1431 32.8697 65.71C32.0064 67.277 31.1431 69.0528 30.4032 70.9331C29.9099 72.2911 29.4165 73.6491 29.1699 74.7982C28.7999 75.9473 28.6766 76.8875 28.6766 77.6187C28.6766 78.3499 28.7999 78.6633 29.1699 78.6633C29.5399 78.5588 30.1565 78.0365 30.8965 76.8875C32.3764 74.9027 33.4863 72.5001 34.473 69.8885C35.4596 67.1725 36.0762 64.6654 36.5695 62.3673Z" fill="#C89F9C"/>
<path d="M65.5516 48.2625C66.045 48.3669 66.2916 48.5758 66.4149 48.9937C66.4149 49.4115 66.2916 49.7249 65.675 50.1428C65.1817 50.5606 64.6884 50.874 64.195 51.1874C63.0851 52.0231 61.8518 52.8588 60.4952 53.7989C59.5086 54.5302 58.522 55.2614 57.6587 56.0971C57.0421 56.7239 56.5487 57.3506 56.1788 58.0819C55.8088 59.022 55.3155 59.8577 54.4522 60.6934C53.9589 61.1113 53.4656 61.4246 52.8489 61.5291C52.2323 61.6336 51.6157 61.6336 50.999 61.4246C50.7524 61.3202 50.5057 61.2157 50.259 61.0068C50.1357 60.7979 50.0124 60.589 50.1357 60.2756C50.259 59.8577 50.3824 59.4399 50.7524 59.1265C51.1223 58.7086 51.4923 58.1863 51.9856 57.7685L52.109 57.664C53.5889 56.0971 53.7122 54.4257 52.3556 52.7543C51.9856 52.3365 51.6157 52.0231 51.2457 51.7097C51.1223 51.6052 50.999 51.5008 50.8757 51.3963C50.629 51.1874 50.3824 50.874 50.1357 50.6651C49.6424 50.2472 49.1491 49.7249 48.7791 49.3071C47.4225 47.7401 47.5458 46.2777 49.0258 44.9197C50.259 43.6661 51.8623 42.726 53.8355 42.3081C55.0688 41.9947 56.1788 42.0992 57.2887 42.6215C58.3987 43.1438 58.892 43.875 58.7686 44.9197C58.6453 45.6509 58.2753 45.9643 57.5354 46.1732C56.6721 46.2777 56.0554 46.0687 55.5621 45.442C55.4388 45.233 55.3155 45.0241 55.3155 44.8152C55.3155 44.6063 55.1921 44.5018 55.0688 44.3974C54.9455 44.2929 54.8222 44.2929 54.5755 44.2929C54.3288 44.2929 54.0822 44.5018 53.5889 44.7107C52.9723 45.0241 52.3556 45.442 51.8623 46.0687C51.1223 46.9044 50.999 47.7401 51.739 48.6803C51.9856 48.9937 52.2323 49.2026 52.4789 49.516C52.8489 49.8294 53.0956 50.1428 53.3422 50.3517C53.9589 50.874 54.4522 51.3963 54.9455 51.8142C55.4388 52.3365 55.9321 52.8588 56.3021 53.4855C56.5487 53.4855 57.0421 53.1722 57.782 52.7543C58.522 52.3365 59.2619 51.8142 60.1252 51.2918C60.9885 50.7695 61.7285 50.2472 62.4685 49.8294C63.0851 49.4115 63.4551 49.2026 63.7017 48.9937C63.9484 48.8892 64.0717 48.7848 64.4417 48.7848C64.935 48.2625 65.1817 48.2625 65.5516 48.2625Z" fill="#C89F9C"/>
<path d="M81.0906 48.2643C81.2139 48.2643 81.3373 48.3687 81.3373 48.3687C81.3373 48.3687 81.4606 48.4732 81.4606 48.6821C81.4606 48.7866 81.4606 48.9955 81.3373 49.2044C81.2139 49.4133 80.9673 49.5178 80.844 49.7267C79.734 50.5624 78.5007 51.0847 77.0208 51.2937C76.1575 51.3981 75.4176 51.3981 74.5543 51.3981C73.691 51.2937 72.951 51.1892 72.0877 50.8758C71.4711 50.6669 70.9778 50.6669 70.4845 51.0847C69.4978 51.9204 68.3879 52.6517 67.2779 53.3829C66.6613 53.8007 66.0447 54.1141 65.428 54.323C64.8114 54.532 64.0714 54.7409 63.3315 54.7409C61.1116 54.7409 60.2483 53.8007 60.7416 52.0249C60.7416 51.9204 60.8649 51.9204 60.8649 51.816C61.4816 50.3535 62.3449 49.1 63.3315 47.9509C64.3181 46.8018 65.6747 45.8616 67.2779 45.0259C68.3879 44.5036 69.4978 44.2947 70.7311 44.3992C70.9778 44.5036 71.3478 44.6081 71.5944 44.7126C71.9644 44.817 72.0877 45.1304 71.9644 45.4438C71.9644 45.5482 71.8411 45.6527 71.8411 45.6527C71.7177 45.7572 71.7177 45.7572 71.5944 45.8616C71.5944 45.9661 71.4711 45.9661 71.3478 45.9661C71.2244 45.9661 71.2244 45.9661 71.1011 45.9661C70.2378 45.9661 69.4978 46.175 68.8812 46.5929C68.2646 47.0107 67.6479 47.4286 67.1546 47.9509C66.538 48.4732 66.0447 49.1 65.5514 49.7267C65.0581 50.3535 64.6881 51.1892 64.3181 52.0249C65.428 51.5026 66.4147 50.8758 67.0313 50.3535C67.1546 50.249 67.2779 50.1446 67.4013 50.0401C67.5246 49.9357 67.6479 49.8312 67.7713 49.8312C68.3879 49.4133 69.0045 48.9955 69.6212 48.5776C70.3611 48.2643 71.1011 48.0553 71.7177 48.0553C72.4577 48.0553 73.0743 48.2643 73.8143 48.7866C74.6776 49.5178 75.6642 49.7267 76.5275 49.6223C77.3908 49.5178 78.2541 49.2044 78.994 48.891C79.8573 48.3687 80.474 48.2643 81.0906 48.2643Z" fill="#C89F9C"/>
<path d="M102.92 48.2618C103.536 48.5752 103.536 48.8885 102.92 49.4108C102.303 49.8287 101.44 50.351 100.33 50.9778C99.2198 51.5001 97.9866 52.0224 96.8766 52.4402C95.7667 52.8581 94.9034 53.1715 94.2867 53.3804C94.0401 53.4849 94.0401 53.4849 93.9168 53.4849C92.3135 54.1116 90.8336 54.7384 89.477 55.4696C87.997 56.2009 86.5171 56.8276 84.9139 57.5589C84.1739 57.8723 83.3106 57.9767 82.4473 57.7678C82.2007 57.6633 82.0773 57.5589 82.0773 57.3499C81.954 57.141 82.0773 57.0366 82.2007 56.8276L82.324 56.7232C82.9406 56.3053 83.5573 55.8875 84.1739 55.6786C85.0372 55.2607 85.6538 54.6339 86.1471 53.7982C86.6404 52.9625 87.0104 52.2313 87.2571 51.3956C87.5037 50.7689 87.6271 50.0376 87.6271 49.3064C87.6271 48.993 87.6271 48.7841 87.6271 48.4707C87.5037 48.1573 87.3804 47.9484 87.0104 47.7395C86.5171 47.5305 86.1471 47.635 85.6538 47.9484C85.1605 48.2618 84.6672 48.7841 84.1739 49.5153C83.6806 50.1421 83.3106 50.7689 82.9406 51.3956C82.5706 52.0224 82.4473 52.5447 82.324 52.8581C82.2006 53.4849 81.7073 53.7982 80.9674 53.7982C79.9808 53.9027 79.4875 53.5893 79.3641 52.7536C79.1175 50.9778 78.9941 48.2618 78.9941 44.7101C78.9941 41.1583 79.2408 37.3977 79.6108 33.3237C79.9808 29.2497 80.4741 25.698 81.214 22.4597C81.954 19.2213 82.8173 17.0277 83.9272 15.7741C84.6672 15.0429 85.5305 14.7295 86.7638 14.7295C88.2437 14.7295 89.2303 15.3563 89.7236 16.5053C90.3403 17.8633 90.5869 19.4303 90.5869 21.2061C90.5869 22.982 90.3403 24.8623 89.9703 26.6381C89.6003 28.414 89.2303 29.9809 88.8603 31.2345C88.1204 33.5326 87.2571 35.8308 86.3938 38.0245C85.5305 40.2182 84.4205 42.4119 83.1873 44.5011C83.0639 44.6056 83.0639 44.6056 83.0639 44.7101C82.9406 44.919 82.8173 45.2324 82.694 45.4413C82.5706 45.7547 82.694 46.0681 82.9406 46.4859C83.0639 46.3814 83.3106 46.3814 83.4339 46.277C83.8039 46.1725 84.0506 46.0681 84.4205 45.9636C85.2838 45.6502 86.2705 45.4413 87.3804 45.5458C90.0936 45.7547 91.4502 47.0082 91.4502 49.2019C91.4502 49.7242 91.3269 50.2465 91.2036 50.7688C91.0802 51.5001 91.2036 51.9179 91.6969 51.9179C92.1902 51.9179 92.8068 51.709 93.6701 51.3956C93.7934 51.3956 93.7934 51.2912 93.9168 51.2912C94.5334 51.0822 95.52 50.6644 96.8766 50.0376C98.2332 49.5153 99.4665 48.993 100.7 48.5751C101.81 48.4707 102.55 48.2618 102.92 48.2618ZM83.3106 30.8166C83.1873 31.4434 83.1873 32.2791 83.0639 33.3237C82.9406 34.5773 82.8173 35.9353 82.694 37.2933C82.5706 38.6513 82.4473 39.6959 82.324 40.5316C82.8173 40.0093 83.1873 39.0691 83.6806 37.5022C84.1739 35.9353 84.6672 34.2639 85.0372 32.3835C85.5305 30.5032 85.9005 28.9363 86.1471 27.4738C86.3938 26.0114 86.6404 25.2801 86.6404 24.9668C86.6404 24.7578 86.7638 24.34 86.7638 23.6088C86.8871 22.8775 86.8871 22.1463 86.8871 21.3106C86.8871 20.4749 86.8871 19.7437 86.7638 19.2214C86.6404 18.5946 86.5171 18.2812 86.1471 18.2812C86.0238 18.2812 86.0238 18.3857 85.9005 18.4901C85.7771 18.5946 85.7771 18.699 85.6538 18.8035C85.5305 19.2213 85.2838 19.6392 85.1605 20.0571C85.1605 20.0571 85.1605 20.1615 85.1605 20.266C84.5439 22.0418 84.1739 23.8177 83.8039 25.5935C83.8039 27.1605 83.5573 28.9363 83.3106 30.8166Z" fill="#C89F9C"/>
<path d="M105.263 50.1422C105.14 50.1422 105.14 50.1422 105.263 50.1422C105.14 50.1422 105.14 50.1422 105.263 50.1422C105.14 50.1422 105.14 50.1422 105.263 50.1422ZM118.952 48.4708C119.076 48.3663 119.322 48.2618 119.569 48.1574C119.939 48.0529 120.186 47.9485 120.432 47.9485C120.679 47.9485 120.926 48.0529 121.049 48.2618C121.172 48.3663 121.172 48.5752 121.049 48.6797C121.049 48.7842 120.926 48.8886 120.802 48.9931C120.062 49.6199 118.952 50.3511 117.472 50.9778C115.992 51.7091 114.389 52.2314 112.786 52.7537C111.183 53.276 109.826 53.5894 108.716 53.7983C107.483 54.0072 106.25 54.0072 105.016 53.9028C103.413 53.6939 102.303 53.1715 101.563 52.2314C100.823 51.2912 100.453 50.2466 100.7 49.0975C100.947 47.844 101.563 46.7994 102.796 45.9637C103.906 45.2324 105.263 44.9191 106.866 45.128C107.73 45.2325 108.593 45.5458 109.333 45.9637C110.196 46.486 110.566 47.1128 110.443 47.844C110.319 48.5752 109.826 49.0975 108.963 49.5154C108.469 49.7243 107.976 49.8288 107.36 49.9332C106.743 49.9332 106.126 49.9332 105.263 49.9332C105.263 49.9332 105.14 49.9332 105.016 49.9332C104.893 49.9332 104.893 49.9332 104.77 49.9332C104.523 49.9332 104.4 50.0377 104.276 50.1422C104.153 50.2466 104.153 50.3511 104.276 50.56C104.646 51.5002 105.51 51.918 106.866 52.0225C108.1 52.0225 109.579 51.8136 111.183 51.3957C112.786 50.9779 114.266 50.4555 115.746 49.8288C117.102 49.3065 118.212 48.8886 118.952 48.4708ZM105.14 47.3217C104.893 47.4261 104.77 47.5306 104.77 47.7395C104.646 47.844 104.646 48.0529 104.646 48.1574C104.646 48.2618 104.646 48.3663 104.646 48.3663C104.646 48.3663 104.893 48.4708 105.14 48.4708C105.386 48.4708 105.756 48.4708 106.003 48.4708C106.373 48.4708 106.62 48.3663 106.866 48.2618C107.113 48.1574 107.113 47.9485 107.113 47.7395C106.99 47.4262 106.743 47.2172 106.25 47.1128C105.88 47.0083 105.51 47.1128 105.14 47.3217Z" fill="#C89F9C"/>
<path d="M135.231 48.5773C135.848 48.1595 136.341 48.055 136.711 48.264C137.081 48.5773 137.081 49.0997 136.711 49.8309C135.848 51.2933 134.615 52.7558 133.258 54.0094C131.902 55.2629 130.175 56.3075 128.448 56.8298C127.709 57.0388 126.845 57.1432 126.105 57.1432C125.365 57.1432 124.502 57.0387 123.762 56.9343C123.022 56.8298 122.405 56.5164 121.912 56.0986C121.419 55.6807 120.925 55.2629 120.556 54.7406C119.446 52.9647 118.706 50.4576 118.459 47.1149C118.212 43.7721 118.089 40.2204 118.336 36.2508C118.582 32.2813 118.952 28.5207 119.446 24.969C119.939 21.4172 120.556 18.3879 121.049 16.0897C121.295 15.1495 121.665 14.2094 122.282 13.2692C122.899 12.3291 123.762 11.9112 124.995 12.0157C126.105 12.0157 126.969 12.4335 127.339 13.3737C127.832 14.5228 128.078 15.6718 128.078 16.9254C128.325 19.7459 128.202 22.5663 127.832 25.3868C127.462 28.1028 126.969 30.6099 126.352 33.0125C125.735 35.4151 125.119 37.7133 124.502 40.0115C123.639 42.7275 122.899 45.6524 122.159 48.6818C122.159 48.9952 122.282 49.3086 122.282 49.5175C122.405 50.3532 122.529 51.0844 122.652 51.7112C122.899 52.338 123.269 53.0692 123.885 54.0094C124.502 54.8451 125.242 55.2629 126.105 55.3674C126.969 55.3674 127.955 55.1584 128.818 54.7406C129.805 54.3227 130.545 53.696 131.408 53.0692C132.148 52.4424 132.765 51.8157 133.258 51.2933C133.382 51.1889 133.628 50.8755 133.875 50.4576C134.245 50.0398 134.492 49.622 134.861 49.3086C134.861 48.9952 135.108 48.7863 135.231 48.5773ZM121.542 39.8025C121.912 38.9668 122.282 37.7133 122.652 35.9374C123.022 34.1616 123.392 32.1768 123.639 29.9831C124.009 27.7894 124.132 25.7002 124.379 23.7154C124.502 21.7306 124.625 20.1637 124.502 18.9102C124.502 17.7611 124.255 17.2388 124.009 17.3432C123.515 19.0146 123.269 20.5815 123.145 22.044C123.022 22.7752 122.899 23.9243 122.775 25.3868C122.405 27.9983 122.159 30.7144 121.789 33.6393C121.542 36.5642 121.419 38.549 121.542 39.8025Z" fill="#C89F9C"/>
<path d="M152.374 48.2643C152.497 48.2643 152.621 48.3687 152.621 48.3687C152.621 48.3687 152.744 48.4732 152.744 48.6821C152.744 48.7866 152.744 48.9955 152.621 49.2044C152.497 49.4133 152.251 49.5178 152.127 49.7267C151.017 50.5624 149.784 51.0847 148.304 51.2937C147.441 51.3981 146.701 51.3981 145.838 51.3981C144.974 51.2937 144.234 51.1892 143.371 50.8758C142.754 50.6669 142.261 50.6669 141.768 51.0847C140.781 51.9204 139.671 52.6517 138.561 53.3829C137.945 53.8007 137.328 54.1141 136.711 54.323C136.095 54.532 135.355 54.7409 134.615 54.7409C132.395 54.7409 131.532 53.8007 132.025 52.0249C132.025 51.9204 132.148 51.9204 132.148 51.816C132.765 50.3535 133.628 49.1 134.615 47.9509C135.601 46.8018 136.958 45.8616 138.561 45.0259C139.671 44.5036 140.781 44.2947 142.014 44.3992C142.261 44.5036 142.631 44.6081 142.878 44.7126C143.248 44.817 143.371 45.1304 143.248 45.4438C143.248 45.5482 143.124 45.6527 143.124 45.6527C143.001 45.7572 143.001 45.7572 142.878 45.8616C142.878 45.9661 142.754 45.9661 142.631 45.9661C142.508 45.9661 142.508 45.9661 142.384 45.9661C141.521 45.9661 140.781 46.175 140.165 46.5929C139.548 47.0107 138.931 47.4286 138.438 47.9509C137.821 48.4732 137.328 49.1 136.835 49.7267C136.341 50.3535 135.971 51.1892 135.601 52.0249C136.711 51.5026 137.698 50.8758 138.315 50.3535C138.438 50.249 138.561 50.1446 138.685 50.0401C138.808 49.9357 138.931 49.8312 139.055 49.8312C139.671 49.4133 140.288 48.9955 140.904 48.5776C141.644 48.2643 142.384 48.0553 143.001 48.0553C143.741 48.0553 144.358 48.2643 145.098 48.7866C145.961 49.5178 146.948 49.7267 147.811 49.6223C148.674 49.5178 149.537 49.2044 150.277 48.891C151.141 48.4732 151.881 48.2643 152.374 48.2643Z" fill="#C89F9C"/>
<path d="M220.204 49.4124C219.834 49.7257 219.587 50.1436 219.094 50.457C218.847 50.6659 218.724 50.8748 218.477 50.9793C215.024 54.3221 211.448 57.4559 207.624 60.4853C204.171 63.2013 200.471 65.7084 196.525 67.9021C194.428 69.0512 192.332 69.9914 189.989 70.7226C187.769 71.4538 185.426 72.0806 182.959 72.394C180.492 72.7074 178.149 72.8118 175.683 72.6029C172.106 72.185 169.393 71.1404 167.42 69.5735C165.446 67.9021 164.213 65.9173 163.473 63.5147C162.857 61.1121 162.61 58.605 162.857 55.889C163.103 53.173 163.72 50.5614 164.46 48.0543C165.323 45.5473 166.186 43.2491 167.173 41.3688C169.27 37.3992 171.613 33.6386 174.449 30.0869C177.286 26.5352 180.492 23.1924 184.192 20.163C184.686 19.7452 184.932 19.4318 184.809 19.3273C184.686 19.2229 184.439 19.014 183.946 19.014C183.699 19.014 183.452 18.9095 183.206 18.9095C181.972 18.5961 180.862 18.2827 179.629 17.8649C177.656 17.3426 175.683 16.8203 173.709 16.2979C171.736 15.7756 169.763 15.3578 167.79 15.1489C166.063 14.8355 164.213 14.8355 162.487 14.9399C161.253 14.9399 160.02 15.2533 158.91 15.8801C158.17 16.1935 157.554 16.7158 157.06 17.1336C156.567 17.656 156.197 18.2827 156.197 19.1184C156.074 19.8496 155.457 20.163 154.347 19.9541C153.607 19.8496 153.237 19.4318 153.237 18.805C153.237 18.2827 153.36 17.8649 153.607 17.447C153.854 17.0292 154.1 16.6113 154.594 16.2979C155.95 14.9399 157.677 13.9998 159.897 13.6864C162.487 13.1641 165.2 13.0596 167.913 13.373C169.886 13.5819 171.86 13.9998 173.709 14.4176C175.559 14.8355 177.533 15.3578 179.382 15.8801C179.506 15.8801 179.752 15.9846 179.876 15.9846C180.492 16.1935 180.986 16.2979 181.602 16.5069C183.082 16.8202 184.439 17.2381 185.795 17.656C186.289 17.8649 186.782 17.8649 187.275 17.7604C187.769 17.6559 188.139 17.447 188.632 17.2381C190.359 15.9846 192.332 15.0444 194.305 14.2087C196.895 13.0596 199.731 12.4329 202.691 12.2239C203.555 12.1195 204.541 12.2239 205.405 12.3284C206.268 12.4328 207.131 12.6418 207.994 12.9552C209.351 13.5819 210.091 14.3132 210.338 15.3578C210.584 16.2979 210.091 17.3426 209.104 18.2827C208.118 19.1184 207.008 19.7452 205.775 20.0586C204.171 20.5809 202.568 20.8943 200.965 20.9987C199.238 21.1032 197.635 21.1032 195.908 21.1032C194.182 21.1032 192.579 20.8943 190.975 20.5809C190.852 20.5809 190.729 20.5809 190.605 20.4764C189.989 20.372 189.495 20.2675 189.002 20.2675C188.509 20.2675 188.015 20.4764 187.522 20.8943C183.206 24.5504 179.382 28.52 176.176 33.0118C172.969 37.5037 170.256 42.2045 168.406 47.0097C167.666 48.6811 167.05 50.6659 166.68 52.7551C166.31 54.8444 166.063 56.9336 166.186 59.0228C166.31 61.1121 166.803 63.0969 167.79 64.8727C168.776 66.753 170.256 68.2155 172.229 69.469C173.956 70.4092 175.806 70.9315 177.903 71.036C180.986 71.1404 183.946 70.7226 186.782 69.7824C189.865 68.8423 192.702 67.4843 195.415 65.9173C197.758 64.5593 199.978 63.0969 202.198 61.5299C204.295 59.963 206.391 58.2916 208.488 56.6202C209.228 55.9935 210.584 54.9488 212.434 53.4864C214.284 52.0239 216.011 50.7704 217.614 49.6213C217.861 49.4124 218.107 49.2034 218.354 48.9945C218.847 48.5767 219.217 48.3677 219.587 48.1588C219.957 47.9499 220.327 47.8454 220.697 47.9499C221.437 47.8454 221.314 48.3677 220.204 49.4124ZM202.691 13.5819C200.471 13.7909 198.498 14.4176 196.525 15.2533C194.675 16.089 192.702 17.1336 190.975 18.2827C192.579 18.805 194.305 19.014 196.032 19.2229C197.882 19.3273 199.485 19.3273 200.965 19.1184C202.321 18.9095 203.555 18.5961 204.788 18.0738C205.528 17.7604 206.145 17.3426 206.761 16.7158C207.254 16.1935 207.378 15.5667 207.131 15.1489C207.008 14.6265 206.514 14.2087 205.775 13.9998C204.911 13.5819 203.801 13.373 202.691 13.5819Z" fill="#C89F9C"/>
<path d="M236.606 48.3687C236.73 48.3687 236.853 48.4732 236.853 48.4732C236.853 48.4732 236.976 48.5777 236.976 48.7866C236.976 48.8911 236.976 49.1 236.853 49.3089C236.73 49.5178 236.483 49.6223 236.36 49.8312C235.25 50.6669 234.016 51.1892 232.537 51.3981C231.673 51.5026 230.933 51.5026 230.07 51.5026C229.207 51.3981 228.467 51.2937 227.603 50.9803C226.987 50.7714 226.494 50.7714 226 51.1892C225.014 52.0249 223.904 52.7561 222.794 53.4874C222.177 53.9052 221.56 54.2186 220.944 54.4275C220.327 54.6365 219.587 54.8454 218.847 54.8454C216.627 54.8454 215.764 53.9052 216.257 52.1294C216.257 52.0249 216.381 52.0249 216.381 51.9205C216.997 50.458 217.861 49.2044 218.847 48.0554C219.834 46.9063 221.19 45.9661 222.794 45.1304C223.904 44.6081 225.014 44.3992 226.247 44.5037C226.494 44.6081 226.863 44.7126 227.11 44.817C227.48 44.9215 227.603 45.2349 227.48 45.5483C227.48 45.6527 227.357 45.7572 227.357 45.7572C227.233 45.8617 227.233 45.8617 227.11 45.9661C227.11 46.0706 226.987 46.0706 226.863 46.0706C226.74 46.0706 226.74 46.0706 226.617 46.0706C225.754 46.0706 225.014 46.2795 224.397 46.6974C223.78 47.1152 223.164 47.533 222.67 48.0554C222.054 48.5777 221.56 49.2044 221.067 49.8312C220.574 50.458 220.204 51.2937 219.834 52.1294C220.944 51.6071 221.93 50.9803 222.547 50.458C222.67 50.3535 222.794 50.2491 222.917 50.1446C223.04 50.0401 223.164 49.9357 223.287 49.9357C223.904 49.5178 224.52 49.1 225.137 48.6821C225.877 48.3687 226.617 48.1598 227.233 48.1598C227.973 48.1598 228.59 48.3687 229.33 48.8911C230.193 49.6223 231.18 49.8312 232.043 49.7267C232.907 49.6223 233.77 49.3089 234.51 48.9955C235.373 48.5777 236.113 48.3687 236.606 48.3687Z" fill="#C89F9C"/>
<path d="M252.022 48.365C252.515 48.4694 252.762 48.6784 252.885 49.0962C252.885 49.5141 252.762 49.8274 252.145 50.2453C251.652 50.6631 251.159 50.9765 250.666 51.2899C249.556 52.1256 248.322 52.9613 246.966 53.9015C245.979 54.6327 244.992 55.3639 244.129 56.1996C243.513 56.8264 243.019 57.4532 242.649 58.1844C242.279 59.1246 241.786 59.9603 240.923 60.7959C240.429 61.2138 239.936 61.5272 239.319 61.6316C238.703 61.7361 238.086 61.7361 237.469 61.5272C237.223 61.4227 236.976 61.3182 236.73 61.1093C236.606 60.9004 236.483 60.6915 236.606 60.3781C236.73 59.9602 236.853 59.5424 237.223 59.229C237.593 58.8112 237.963 58.2889 238.456 57.871L238.579 57.7665C240.059 56.1996 240.183 54.5282 238.826 52.8568C238.456 52.439 238.086 52.1256 237.716 51.8122C237.593 51.7078 237.469 51.6033 237.346 51.4988C237.099 51.2899 236.853 50.9765 236.606 50.7676C236.113 50.3498 235.62 49.8274 235.25 49.4096C233.893 47.8427 234.016 46.3802 235.496 45.0222C236.73 43.7687 238.333 42.8285 240.306 42.4107C241.539 42.0973 242.649 42.2017 243.759 42.724C244.869 43.2464 245.362 43.9776 245.239 45.0222C245.116 45.7534 244.746 46.0668 244.006 46.2757C243.143 46.3802 242.526 46.1713 242.033 45.5445C241.909 45.3356 241.786 45.1267 241.786 44.9177C241.786 44.7088 241.663 44.6044 241.539 44.4999C241.416 44.3954 241.293 44.3954 241.046 44.3954C240.799 44.3954 240.553 44.6044 240.059 44.8133C239.443 45.1267 238.826 45.5445 238.333 46.1713C237.593 47.007 237.469 47.8427 238.209 48.7828C238.456 49.0962 238.703 49.3051 238.949 49.6185C239.319 49.9319 239.566 50.2453 239.813 50.4542C240.429 50.9765 240.923 51.4988 241.416 51.9167C241.909 52.439 242.403 52.9613 242.773 53.5881C243.019 53.5881 243.513 53.2747 244.252 52.8568C244.992 52.439 245.732 51.9167 246.596 51.3944C247.459 50.8721 248.199 50.3498 248.939 49.9319C249.556 49.5141 249.926 49.3051 250.172 49.0962C250.419 48.9917 250.542 48.8873 250.912 48.8873C251.405 48.365 251.775 48.365 252.022 48.365Z" fill="#C89F9C"/>
<path d="M265.095 48.4692C265.342 48.2603 265.589 48.1558 265.712 48.2603C265.835 48.3648 265.958 48.4692 265.958 48.6781C266.082 48.8871 266.082 48.9915 266.082 49.2004C266.082 49.5138 265.958 49.8272 265.835 50.1406C265.712 50.454 265.588 50.6629 265.588 50.7674C265.219 51.6031 264.602 52.4388 263.739 53.2744C262.875 54.1101 261.889 54.7369 260.779 55.2592C259.669 55.7815 258.436 55.9905 257.079 55.886C255.229 55.6771 253.749 55.1548 252.762 54.1101C251.776 53.0655 250.913 51.9164 250.296 50.454C249.803 48.9915 249.433 47.6335 249.186 46.2755C248.693 42.9327 248.569 39.4855 248.693 36.0382C248.693 35.2025 248.816 34.3668 248.816 33.5312C248.816 33.2178 248.816 32.9044 248.816 32.6955C248.816 32.1731 248.569 31.8598 247.953 31.8598C247.336 31.8598 246.719 31.8598 246.103 31.8598C245.363 31.8598 244.746 31.8598 244.006 31.8598C243.883 31.8598 243.76 31.8598 243.636 31.8598C243.143 31.8598 242.65 31.8598 242.28 31.6508C242.033 31.5464 241.91 31.4419 241.786 31.3374C241.663 31.233 241.54 31.0241 241.54 30.8151C241.54 30.6062 241.663 30.5018 241.786 30.3973C241.91 30.2928 242.156 30.1884 242.403 30.1884C243.266 30.1884 244.13 30.1884 244.87 30.1884C245.363 30.1884 245.856 30.1884 246.349 30.1884C246.966 30.1884 247.706 30.1884 248.323 30.0839C248.693 30.0839 248.939 29.875 248.939 29.5616C249.063 29.1438 249.063 28.7259 249.063 28.3081C249.186 26.9501 249.309 25.5921 249.433 24.2341C249.556 23.2939 249.556 22.3537 249.679 21.518V21.4136C249.679 21.2046 249.679 20.9957 249.679 20.8913C249.926 20.16 250.543 19.7422 251.529 19.7422C252.392 19.8466 252.886 20.2645 253.009 20.9957C253.009 21.518 253.009 21.9359 253.009 22.4582C253.009 22.6671 253.009 22.876 253.009 23.085C253.009 23.6073 252.886 24.2341 252.886 24.7564C252.762 26.0099 252.639 27.2634 252.639 28.6214C252.639 29.3527 252.639 29.7705 252.886 29.875C253.132 30.0839 253.626 30.0839 254.489 30.0839C256.092 30.0839 257.696 30.0839 259.299 30.0839C260.409 30.0839 261.642 30.0839 262.752 30.0839C262.875 30.0839 262.999 30.0839 263.122 30.0839C263.369 30.0839 263.615 30.0839 263.985 30.0839C264.232 30.0839 264.479 30.1884 264.725 30.2928C264.849 30.3973 264.849 30.3973 264.972 30.5018C265.095 30.6062 265.095 30.7107 265.095 30.8151C265.095 30.9196 265.095 31.0241 264.972 31.1285C264.849 31.233 264.849 31.233 264.725 31.3374C264.232 31.5464 263.615 31.6508 263.122 31.6508C262.999 31.6508 262.875 31.6508 262.752 31.6508C261.025 31.6508 259.299 31.6508 257.572 31.6508C256.586 31.6508 255.599 31.6508 254.736 31.6508C254.612 31.6508 254.612 31.6508 254.612 31.6508C254.119 31.6508 253.749 31.6508 253.256 31.6508C252.762 31.7553 252.516 31.9642 252.392 32.2776C252.269 32.4865 252.269 32.6955 252.269 32.9044C252.146 35.0981 252.146 37.1873 252.146 39.381C252.146 41.5747 252.269 43.664 252.639 45.8577C252.886 47.5291 253.379 49.2004 254.242 50.7674C254.736 51.6031 255.229 52.3343 255.846 52.7521C256.462 53.2744 257.202 53.4834 257.942 53.3789C259.422 53.17 260.532 52.7521 261.272 52.1254C262.012 51.4986 262.752 50.7674 263.245 49.9317C263.985 49.6183 264.479 48.9915 265.095 48.4692Z" fill="#C89F9C"/>
<path d="M281.251 48.5772C281.374 48.4728 281.621 48.3683 281.868 48.2638C282.238 48.1594 282.484 48.0549 282.731 48.0549C282.978 48.0549 283.224 48.1594 283.348 48.3683C283.471 48.4728 283.471 48.6817 283.348 48.7862C283.348 48.8906 283.224 48.9951 283.101 49.0995C282.361 49.7263 281.251 50.4575 279.771 51.0843C278.291 51.8155 276.688 52.3378 275.085 52.8602C273.482 53.3825 272.125 53.6959 271.015 53.9048C269.782 54.1137 268.548 54.1137 267.315 54.0092C265.712 53.8003 264.602 53.278 263.862 52.3378C263.122 51.3977 262.752 50.3531 262.999 49.204C263.245 47.9504 263.862 46.9058 265.095 46.0701C266.205 45.3389 267.562 45.0255 269.165 45.2344C270.028 45.3389 270.892 45.6523 271.632 46.0701C272.495 46.5924 272.865 47.2192 272.742 47.9505C272.618 48.6817 272.125 49.204 271.262 49.6218C270.768 49.8308 270.275 49.9352 269.658 50.0397C269.042 50.0397 268.425 50.0397 267.562 50.0397C267.562 50.0397 267.438 50.0397 267.315 50.0397C267.192 50.0397 267.192 50.0397 267.068 50.0397C266.822 50.0397 266.699 50.1441 266.575 50.2486C266.452 50.3531 266.452 50.4575 266.575 50.6665C266.945 51.6066 267.808 52.0245 269.165 52.1289C270.398 52.1289 271.878 51.92 273.482 51.5022C275.085 51.0843 276.565 50.562 278.045 49.9352C279.401 49.5174 280.511 48.9951 281.251 48.5772ZM267.438 47.4281C267.192 47.5326 267.068 47.6371 267.068 47.846C266.945 47.9504 266.945 48.1594 266.945 48.2638C266.945 48.3683 266.945 48.4728 266.945 48.4728C266.945 48.4728 267.192 48.5772 267.438 48.5772C267.685 48.5772 268.055 48.5772 268.425 48.5772C268.795 48.5772 269.042 48.4728 269.288 48.3683C269.535 48.2638 269.535 48.0549 269.535 47.846C269.412 47.5326 269.165 47.3237 268.672 47.2192C268.178 47.2192 267.808 47.2192 267.438 47.4281Z" fill="#C89F9C"/>
<path d="M297.53 48.7853C298.147 48.3675 298.64 48.263 299.01 48.4719C299.38 48.7853 299.38 49.3076 299.01 50.0389C298.147 51.5013 296.913 52.9638 295.557 54.2174C294.2 55.4709 292.474 56.5155 290.747 57.0378C290.007 57.2467 289.144 57.3512 288.404 57.3512C287.664 57.3512 286.801 57.2467 286.061 57.1423C285.321 57.0378 284.704 56.7244 284.211 56.3066C283.717 55.8887 283.224 55.4709 282.854 54.9486C281.744 53.1727 281.004 50.6656 280.758 47.3229C280.511 43.9801 280.388 40.4284 280.634 36.4588C280.881 32.4893 281.251 28.7286 281.744 25.1769C282.237 21.6252 282.854 18.5958 283.347 16.2977C283.594 15.3575 283.964 14.4174 284.581 13.4772C285.197 12.5371 286.061 12.1192 287.294 12.2237C288.404 12.2237 289.267 12.6415 289.637 13.5817C290.13 14.7307 290.377 15.8798 290.377 17.1334C290.624 19.9539 290.5 22.7743 290.13 25.5948C289.76 28.3108 289.267 30.8179 288.65 33.2205C288.034 35.6231 287.417 37.9213 286.801 40.2194C285.937 42.9355 285.197 45.8604 284.457 48.8898C284.457 49.2032 284.581 49.5166 284.581 49.7255C284.704 50.5612 284.827 51.2924 284.951 51.9192C285.197 52.546 285.567 53.2772 286.184 54.2174C286.801 55.053 287.541 55.4709 288.404 55.5754C289.267 55.5754 290.254 55.3664 291.117 54.9486C292.104 54.5307 292.844 53.904 293.707 53.2772C294.447 52.6504 295.064 52.0236 295.557 51.5013C295.68 51.3969 295.927 51.0835 296.173 50.6656C296.543 50.2478 296.79 49.83 297.16 49.5166C297.16 49.0987 297.407 48.8898 297.53 48.7853ZM283.841 39.9061C284.211 39.0704 284.581 37.8168 284.951 36.041C285.321 34.2651 285.691 32.2803 285.937 30.0866C286.307 27.8929 286.431 25.8037 286.677 23.8189C286.801 21.8342 286.924 20.2672 286.801 19.0137C286.801 17.8646 286.554 17.3423 286.307 17.4468C285.814 19.1182 285.567 20.6851 285.444 22.1476C285.321 22.8788 285.197 24.0279 285.074 25.4903C284.704 28.1019 284.457 30.8179 284.087 33.7428C283.841 36.6677 283.717 38.757 283.841 39.9061Z" fill="#C89F9C"/>
<path d="M313.316 48.7853C313.933 48.3675 314.426 48.263 314.796 48.4719C315.166 48.7853 315.166 49.3076 314.796 50.0389C313.933 51.5013 312.699 52.9638 311.343 54.2174C309.986 55.4709 308.26 56.5155 306.533 57.0378C305.793 57.2467 304.93 57.3512 304.19 57.3512C303.45 57.3512 302.587 57.2467 301.847 57.1423C301.107 57.0378 300.49 56.7244 299.997 56.3066C299.503 55.8887 299.01 55.4709 298.64 54.9486C297.53 53.1727 296.79 50.6656 296.544 47.3229C296.297 43.9801 296.174 40.4284 296.42 36.4588C296.667 32.4893 297.037 28.7286 297.53 25.1769C298.023 21.6252 298.64 18.5958 299.133 16.2977C299.38 15.3575 299.75 14.4174 300.367 13.4772C300.983 12.5371 301.847 12.1192 303.08 12.2237C304.19 12.2237 305.053 12.6415 305.423 13.5817C305.916 14.7307 306.163 15.8798 306.163 17.1334C306.41 19.9539 306.286 22.7743 305.916 25.5948C305.546 28.3108 305.053 30.8179 304.436 33.2205C303.82 35.6231 303.203 37.9213 302.587 40.2194C301.723 42.9355 300.983 45.8604 300.243 48.8898C300.243 49.2032 300.367 49.5166 300.367 49.7255C300.49 50.5612 300.613 51.2924 300.737 51.9192C300.983 52.546 301.353 53.2772 301.97 54.2174C302.587 55.053 303.327 55.4709 304.19 55.5754C305.053 55.5754 306.04 55.3664 306.903 54.9486C307.89 54.5307 308.63 53.904 309.493 53.2772C310.233 52.6504 310.85 52.0236 311.343 51.5013C311.466 51.3969 311.713 51.0835 311.959 50.6656C312.329 50.2478 312.576 49.83 312.946 49.5166C312.946 49.2032 313.193 48.8898 313.316 48.7853ZM299.627 39.9061C299.997 39.0704 300.367 37.8168 300.737 36.041C301.107 34.2651 301.477 32.2803 301.723 30.0866C302.093 27.8929 302.217 25.8037 302.463 23.8189C302.587 21.8342 302.71 20.2672 302.587 19.0137C302.587 17.8646 302.34 17.3423 302.093 17.4468C301.6 19.1182 301.353 20.6851 301.23 22.1476C301.107 22.8788 300.983 24.0279 300.86 25.4903C300.49 28.1019 300.243 30.8179 299.873 33.7428C299.627 36.6677 299.503 38.757 299.627 39.9061Z" fill="#C89F9C"/>
<path d="M326.759 48.4728C326.882 48.5773 327.005 48.6817 327.005 48.8907C327.005 49.0996 326.882 49.2041 326.759 49.413C325.895 50.5621 324.909 51.5022 323.922 52.4424C322.935 53.2781 321.702 54.0093 320.469 54.4271C319.236 54.845 317.879 54.9495 316.276 54.7405C315.166 54.6361 314.426 54.3227 313.932 53.8004C313.439 53.3825 312.946 52.6513 312.699 51.8156C312.329 50.4576 312.206 49.0996 312.453 47.6371C312.699 46.8014 313.193 46.3836 314.302 46.3836C315.166 46.3836 315.659 46.697 315.782 47.4282C315.782 47.9505 315.782 48.5773 315.782 49.0996C315.782 49.204 315.782 49.3085 315.782 49.3085C315.782 50.8754 316.029 51.9201 316.646 52.4424C317.262 52.9647 318.126 53.1736 319.112 52.8602C320.099 52.5468 321.209 52.0245 322.442 50.9799C322.565 50.8754 322.812 50.6665 322.935 50.4576C323.182 50.2487 323.429 50.0398 323.675 49.8308C324.045 49.5174 324.292 49.2041 324.539 48.9951C325.279 48.3684 326.019 48.1594 326.759 48.4728ZM314.056 43.772C313.193 43.6676 312.823 43.3542 312.699 42.623C312.576 42.1006 312.699 41.5783 313.069 41.056C313.316 40.6382 313.809 40.3248 314.302 40.2203C314.919 40.0114 315.412 40.1159 316.029 40.3248C316.276 40.4293 316.399 40.5337 316.399 40.7426C316.522 40.9516 316.522 41.056 316.522 41.1605C316.399 42.9363 315.536 43.8765 314.056 43.772Z" fill="#C89F9C"/>
<path d="M45.5499 82.9855V78.103H48.9105C49.8376 78.103 50.5329 78.2944 50.9964 78.7731C51.46 79.2518 51.8076 79.8262 51.8076 80.4964C51.8076 81.2622 51.5758 81.8367 50.9964 82.3153C50.417 82.794 49.7217 82.9855 48.9105 82.9855H45.5499ZM53.43 80.5921C53.43 79.539 52.9664 78.6774 52.0394 77.9115C51.1123 77.2413 50.0694 76.8584 48.7946 76.8584H44.0435V89.0169H45.5499V84.2301H48.7946C50.0694 84.2301 51.2282 83.8471 52.0394 83.177C52.9664 82.5068 53.43 81.6452 53.43 80.5921Z" fill="#C89F9C"/>
<path d="M56.4428 87.9604C56.0952 87.7689 55.7475 87.386 55.6316 86.9073H54.0093C54.3569 88.5348 55.6316 89.3007 57.8334 89.3007C58.4128 89.3007 58.8764 89.3007 59.3399 89.2049C59.8034 89.1092 60.1511 88.9177 60.4987 88.7263C61.194 88.3433 61.5417 87.6732 61.5417 86.8115C61.5417 85.9499 61.0781 85.3755 60.0352 84.9926C59.5717 84.8011 59.224 84.7053 58.6446 84.6096C58.1811 84.5139 57.7175 84.4181 57.254 84.3224C56.7905 84.2267 56.4428 84.0352 56.2111 83.9395C55.9793 83.748 55.7475 83.5565 55.7475 83.1736C55.7475 82.7906 55.9793 82.5034 56.3269 82.4077C56.6746 82.2162 57.0222 82.1205 57.4858 82.1205C57.9493 82.1205 58.4128 82.2162 58.6446 82.312C58.9922 82.5034 59.224 82.7906 59.3399 83.1736H60.9622C60.7305 82.4077 60.3828 81.8333 59.8034 81.5461C59.224 81.2589 58.4128 81.0674 57.4858 81.0674C56.5587 81.0674 55.7475 81.2589 55.0522 81.6418C54.3569 82.0247 54.0093 82.5992 54.0093 83.4608C54.0093 83.8437 54.1252 84.1309 54.3569 84.4181C54.5887 84.7054 54.9363 84.9926 55.5158 85.0883C55.9793 85.2798 56.4428 85.3755 56.9063 85.4712C57.3699 85.567 57.8334 85.6627 58.2969 85.7584C59.224 86.0457 59.8034 86.4286 59.8034 86.9073C59.8034 87.7689 59.1081 88.1518 57.7175 88.1518C57.3699 88.2476 56.9064 88.1518 56.4428 87.9604Z" fill="#C89F9C"/>
<path d="M65.0181 78.4805C64.7863 78.2891 64.5546 78.2891 64.3228 78.2891C64.091 78.2891 63.8593 78.3848 63.6275 78.4805C63.3957 78.672 63.3958 78.8635 63.3958 79.0549C63.3958 79.2464 63.5116 79.4379 63.6275 79.6294C63.7434 79.8208 64.091 79.8208 64.3228 79.8208C64.5546 79.8208 64.7863 79.7251 65.0181 79.6294C65.134 79.4379 65.2499 79.2464 65.2499 79.0549C65.2499 78.8635 65.134 78.672 65.0181 78.4805ZM65.0181 89.0115V81.1611H63.5116V89.0115H65.0181Z" fill="#C89F9C"/>
<path d="M76.9538 84.0352C76.6062 83.1736 76.0267 82.4077 75.2156 81.929C74.2885 81.3546 73.3614 81.0674 72.3185 81.0674C70.9279 81.0674 69.7691 81.4503 68.842 82.312C67.9149 83.0778 67.4514 84.0352 67.4514 85.184C67.4514 86.3329 67.9149 87.2902 68.842 88.0561C69.3055 88.4391 69.7691 88.7263 70.3485 88.9177C70.9279 89.1092 71.5073 89.2049 72.0867 89.2049C72.6661 89.2049 73.2455 89.1092 73.7091 89.0135C75.2156 88.5348 76.2585 87.7689 76.8379 86.4286H75.0997C74.752 86.9073 74.4044 87.1945 73.9408 87.4817C73.3614 87.7689 72.8979 87.8646 72.3185 87.8646C71.3914 87.8646 70.5802 87.5774 70.0008 87.003C69.3055 86.4286 69.0738 85.7585 69.0738 84.9926C69.0738 84.2267 69.4214 83.5565 70.0008 83.0778C70.3485 82.7906 70.6961 82.5992 71.0438 82.5034C71.3914 82.4077 71.9708 82.312 72.5503 82.312C73.1297 82.312 73.5932 82.5034 74.1726 82.7906C74.752 83.0778 75.0997 83.4608 75.3314 84.0352H76.9538Z" fill="#C89F9C"/>
<path d="M86.688 85.0903C86.688 85.8562 86.3404 86.5263 85.6451 87.1007C84.9498 87.6752 84.1386 87.9624 83.2116 87.9624C82.2845 87.9624 81.4733 87.6752 80.778 87.1007C80.0827 86.5263 79.7351 85.8562 79.7351 85.0903C79.7351 84.3244 80.0827 83.6543 80.778 83.0798C81.4733 82.5054 82.2845 82.2182 83.2116 82.2182C84.1386 82.2182 84.9498 82.5054 85.6451 83.0798C86.4563 83.6543 86.688 84.3244 86.688 85.0903ZM88.3104 85.0903C88.3104 83.9415 87.8469 82.9841 86.8039 82.2182C85.8769 81.4523 84.718 80.9736 83.3274 80.9736C81.9369 80.9736 80.778 81.3566 79.851 82.2182C78.9239 82.9841 78.3445 83.9415 78.3445 85.0903C78.3445 86.2391 78.808 87.1965 79.7351 87.9624C80.6621 88.7283 81.9369 89.2069 83.2116 89.2069C84.6022 89.2069 85.761 88.824 86.688 88.0581C87.731 87.1965 88.3104 86.2391 88.3104 85.0903Z" fill="#C89F9C"/>
<path d="M92.0186 89.1111V75.708H90.5121V89.1111H92.0186Z" fill="#C89F9C"/>
<path d="M102.68 85.0903C102.68 85.8562 102.333 86.5263 101.637 87.1007C100.942 87.6752 100.131 87.9624 99.2038 87.9624C98.2767 87.9624 97.4655 87.6752 96.7702 87.1007C96.0749 86.5263 95.7273 85.8562 95.7273 85.0903C95.7273 84.3244 96.0749 83.6543 96.7702 83.0798C97.4655 82.5054 98.2767 82.2182 99.2038 82.2182C100.131 82.2182 100.942 82.5054 101.637 83.0798C102.333 83.6543 102.68 84.3244 102.68 85.0903ZM104.187 85.0903C104.187 83.9415 103.723 82.9841 102.68 82.2182C101.753 81.4523 100.594 80.9736 99.2038 80.9736C97.8132 80.9736 96.6544 81.3566 95.7273 82.2182C94.8002 82.9841 94.2208 83.9415 94.2208 85.0903C94.2208 86.2391 94.6844 87.1965 95.6114 87.9624C96.5385 88.7283 97.8132 89.2069 99.0879 89.2069C100.478 89.2069 101.637 88.824 102.564 88.0581C103.723 87.1965 104.187 86.2391 104.187 85.0903Z" fill="#C89F9C"/>
<path d="M114.152 85.184C114.152 85.9499 113.804 86.6201 113.225 87.1945C112.53 87.7689 111.719 88.0561 110.792 88.0561C109.864 88.0561 109.053 87.7689 108.358 87.1945C107.663 86.6201 107.431 85.9499 107.431 85.184C107.431 84.4181 107.779 83.748 108.358 83.1736C109.053 82.5992 109.864 82.312 110.792 82.312C111.719 82.312 112.53 82.5992 113.225 83.1736C113.804 83.748 114.152 84.4181 114.152 85.184ZM107.431 90.1623H105.924C106.156 91.0239 106.504 91.6941 107.315 92.3642C108.242 93.1301 109.401 93.5131 110.792 93.5131C112.182 93.5131 113.341 93.1301 114.268 92.3642C115.195 91.5983 115.659 90.641 115.659 89.4922V81.2589H114.152V82.5992C114.036 82.5034 114.036 82.4077 113.92 82.312C112.993 81.4503 111.834 81.0674 110.56 81.0674C109.169 81.0674 108.126 81.4503 107.199 82.312C106.388 83.1736 105.924 84.0352 105.924 85.184C105.924 86.3329 106.388 87.1945 107.199 88.0561C108.126 88.9177 109.169 89.3007 110.56 89.3007C111.834 89.3007 112.993 88.9177 113.92 88.0561C114.036 87.9604 114.152 87.8646 114.152 87.8646V89.5879C114.152 90.3538 113.804 91.0239 113.109 91.5983C112.414 92.1728 111.603 92.46 110.676 92.46C109.749 92.46 108.937 92.1728 108.242 91.5983C107.779 91.1197 107.547 90.641 107.431 90.1623Z" fill="#C89F9C"/>
<path d="M120.062 78.4805C119.83 78.2891 119.599 78.2891 119.367 78.2891C119.135 78.2891 118.903 78.3848 118.672 78.4805C118.44 78.672 118.44 78.8635 118.44 79.0549C118.44 79.2464 118.556 79.4379 118.672 79.6294C118.787 79.8208 119.135 79.8208 119.367 79.8208C119.599 79.8208 119.83 79.7251 120.062 79.6294C120.178 79.4379 120.294 79.2464 120.294 79.0549C120.41 78.8635 120.294 78.672 120.062 78.4805ZM120.178 89.1072V81.2569H118.672V89.1072H120.178Z" fill="#C89F9C"/>
<path d="M130.724 85.184C130.724 85.9499 130.376 86.6201 129.797 87.1945C129.102 87.7689 128.406 88.0561 127.479 88.0561C126.552 88.0561 125.741 87.7689 125.046 87.1945C124.35 86.6201 124.119 85.9499 124.119 85.184C124.119 84.4181 124.466 83.748 125.046 83.1736C125.625 82.5992 126.552 82.312 127.479 82.312C128.406 82.312 129.217 82.5992 129.797 83.1736C130.376 83.748 130.724 84.4181 130.724 85.184ZM132.23 89.1092V81.2589H130.724V82.5992C130.608 82.5034 130.492 82.4077 130.492 82.312C129.565 81.4503 128.522 81.0674 127.132 81.0674C125.857 81.0674 124.698 81.4503 123.771 82.312C122.96 83.1736 122.496 84.0352 122.496 85.184C122.496 86.3329 122.96 87.1945 123.771 88.0561C124.698 88.9177 125.741 89.3007 127.132 89.3007C128.406 89.3007 129.565 88.9177 130.492 88.0561C130.608 87.9604 130.724 87.8646 130.724 87.7689V89.1092H132.23Z" fill="#C89F9C"/>
<path d="M154.132 85.375H152.51C152.046 86.1409 151.235 86.811 150.424 87.2897C149.497 87.7684 148.454 87.9598 147.411 87.9598C145.789 87.9598 144.398 87.4812 143.239 86.5238C142.08 85.5664 141.617 84.4176 141.617 83.0773C141.617 81.737 142.196 80.5882 143.239 79.6308C143.703 79.1521 144.398 78.8649 145.093 78.5777C145.789 78.2905 146.484 78.1948 147.179 78.1948C147.875 78.1948 148.454 78.2905 148.917 78.3862C150.54 78.7692 151.699 79.5351 152.51 80.7796H154.132C153.553 79.6308 152.742 78.6734 151.467 78.0033C150.192 77.3331 148.802 76.9502 147.411 76.9502C145.325 76.9502 143.587 77.6204 142.196 78.7692C141.501 79.3436 141.037 80.0137 140.69 80.7796C140.342 81.5455 140.11 82.3114 140.11 83.173C140.11 84.8963 140.806 86.3323 142.196 87.5769C143.587 88.8215 145.325 89.3959 147.411 89.3959C148.917 89.3959 150.308 89.0129 151.583 88.3428C152.626 87.4812 153.553 86.6195 154.132 85.375Z" fill="#C89F9C"/>
<path d="M157.493 89.1111V75.708H155.986V89.1111H157.493Z" fill="#C89F9C"/>
<path d="M162.012 89.1087V81.2583H160.505V89.1087H162.012ZM164.561 76.9502H162.707L160.969 79.5351H162.128L164.561 76.9502Z" fill="#C89F9C"/>
<path d="M171.63 89.1092H173.137V84.2267C173.137 83.2693 172.789 82.5992 172.326 82.0247C171.978 81.7375 171.63 81.5461 171.283 81.3546C170.819 81.1631 170.356 81.0674 169.66 81.0674C168.965 81.0674 168.386 81.2589 167.922 81.5461C167.458 81.8333 166.995 82.2162 166.763 82.5992V81.2589H165.257V89.1092H166.763V85.8542C166.763 84.8968 166.995 84.0352 167.458 83.4608C167.69 83.1736 168.038 82.8864 168.501 82.6949C168.849 82.5034 169.428 82.4077 170.124 82.4077C170.819 82.4077 171.167 82.5992 171.514 82.9821C171.746 83.365 171.978 83.748 171.978 84.3224L171.63 89.1092Z" fill="#C89F9C"/>
<path d="M177.193 78.5792C176.961 78.3877 176.729 78.3877 176.497 78.3877C176.266 78.3877 176.034 78.4834 175.802 78.5792C175.57 78.7706 175.57 78.9621 175.57 79.1536C175.57 79.3451 175.686 79.5365 175.802 79.728C175.918 79.9195 176.266 79.9195 176.497 79.9195C176.729 79.9195 176.961 79.8237 177.193 79.728C177.309 79.5365 177.424 79.3451 177.424 79.1536C177.54 78.9621 177.424 78.7706 177.193 78.5792ZM177.309 89.1101V81.2598H175.802V89.1101H177.309Z" fill="#C89F9C"/>
<path d="M189.129 84.1309C188.781 83.2693 188.202 82.5034 187.391 82.0247C186.464 81.4503 185.536 81.1631 184.494 81.1631C183.103 81.1631 181.944 81.546 181.017 82.4076C180.09 83.1735 179.626 84.1309 179.626 85.2797C179.626 86.4286 180.09 87.3859 181.017 88.1518C181.481 88.5347 181.944 88.822 182.524 89.0134C183.103 89.2049 183.682 89.3006 184.262 89.3006C184.841 89.3006 185.421 89.2049 185.884 89.1092C187.391 88.6305 188.434 87.8646 189.013 86.5243H187.275C186.927 87.003 186.579 87.2902 186.116 87.5774C185.536 87.8646 185.073 87.9603 184.494 87.9603C183.566 87.9603 182.755 87.6731 182.176 87.0987C181.481 86.5243 181.249 85.8541 181.249 85.0883C181.249 84.3224 181.596 83.6522 182.176 83.1735C182.524 82.8863 182.871 82.6949 183.219 82.5991C183.566 82.5034 184.146 82.4076 184.725 82.4076C185.305 82.4076 185.768 82.5991 186.348 82.8863C186.927 83.1735 187.275 83.5565 187.506 84.1309H189.129Z" fill="#C89F9C"/>
<path d="M198.746 85.184C198.746 85.9499 198.399 86.6201 197.819 87.1945C197.124 87.7689 196.429 88.0561 195.502 88.0561C194.575 88.0561 193.764 87.7689 193.068 87.1945C192.373 86.6201 192.141 85.9499 192.141 85.184C192.141 84.4181 192.489 83.748 193.068 83.1736C193.764 82.5992 194.575 82.312 195.502 82.312C196.429 82.312 197.24 82.5992 197.819 83.1736C198.399 83.8437 198.746 84.5139 198.746 85.184ZM200.253 89.1092V81.2589H198.746V82.5992C198.631 82.5034 198.515 82.4077 198.515 82.312C197.588 81.4503 196.545 81.0674 195.154 81.0674C193.879 81.0674 192.721 81.4503 191.794 82.312C190.982 83.1736 190.519 84.0352 190.519 85.184C190.519 86.3329 190.982 87.1945 191.794 88.0561C192.721 88.9177 193.764 89.3007 195.154 89.3007C196.429 89.3007 197.588 88.9177 198.515 88.0561C198.631 87.9604 198.746 87.8646 198.746 87.7689V89.1092H200.253Z" fill="#C89F9C"/>
<path d="M217.983 85.0883C217.983 84.0352 217.52 83.0778 216.477 82.3119C215.55 81.546 214.391 81.1631 213 81.1631C211.61 81.1631 210.451 81.546 209.524 82.4076C208.597 83.1735 208.017 84.1309 208.017 85.2797C208.017 86.4286 208.481 87.3859 209.408 88.1518C209.872 88.5347 210.335 88.822 211.03 89.0134C211.61 89.2049 212.305 89.3006 213.232 89.3006C214.043 89.3006 214.855 89.1092 215.666 88.6305C216.477 88.2475 217.056 87.5774 217.52 86.8115H215.782C215.434 87.1944 215.086 87.4817 214.507 87.6731C214.043 87.8646 213.464 87.9603 213 87.9603C212.189 87.9603 211.494 87.7689 210.799 87.2902C210.103 86.8115 209.756 86.3328 209.64 85.6627H217.983V85.0883ZM216.361 84.6096H209.64C209.756 84.3224 209.872 83.9394 210.103 83.6522C210.799 82.6949 211.726 82.2162 213 82.2162C213.812 82.2162 214.507 82.4076 215.086 82.8863C215.782 83.4607 216.129 83.9394 216.361 84.6096Z" fill="#C89F9C"/>
<path d="M227.138 89.2073V83.7503H233.859V89.2073H235.366V77.0488H233.859V82.5058H227.138V77.0488H225.632V89.2073H227.138Z" fill="#C89F9C"/>
<path d="M245.911 85.184C245.911 85.9499 245.564 86.6201 244.868 87.1945C244.173 87.7689 243.362 88.0561 242.435 88.0561C241.508 88.0561 240.696 87.7689 240.001 87.1945C239.306 86.6201 238.958 85.9499 238.958 85.184C238.958 84.4181 239.306 83.748 240.001 83.1736C240.696 82.5992 241.508 82.312 242.435 82.312C243.362 82.312 244.173 82.5992 244.868 83.1736C245.564 83.748 245.911 84.4181 245.911 85.184ZM247.534 85.184C247.534 84.0352 247.07 83.0778 246.027 82.312C245.1 81.5461 243.941 81.0674 242.551 81.0674C241.16 81.0674 240.001 81.4503 239.074 82.312C238.147 83.0778 237.568 84.0352 237.568 85.184C237.568 86.3329 238.031 87.2902 238.958 88.0561C239.885 88.822 241.16 89.3007 242.435 89.3007C243.825 89.3007 244.984 88.9177 245.911 88.1518C246.954 87.2902 247.534 86.3329 247.534 85.184Z" fill="#C89F9C"/>
<path d="M251.126 88.0561C250.778 87.8646 250.431 87.4817 250.315 87.003H248.692C249.04 88.6305 250.315 89.3964 252.516 89.3964C253.096 89.3964 253.559 89.3964 254.023 89.3006C254.486 89.2049 254.834 89.0134 255.182 88.822C255.877 88.439 256.225 87.7689 256.225 86.9072C256.225 86.0456 255.761 85.4712 254.718 85.0883C254.255 84.8968 253.907 84.8011 253.328 84.7053C252.864 84.6096 252.401 84.5138 251.937 84.4181C251.474 84.3224 251.126 84.1309 250.894 84.0352C250.662 83.8437 250.431 83.6522 250.431 83.2693C250.431 82.8863 250.662 82.5991 251.01 82.5034C251.358 82.3119 251.705 82.2162 252.169 82.2162C252.632 82.2162 253.096 82.3119 253.328 82.4076C253.675 82.5991 253.907 82.8863 254.023 83.2693H255.645C255.414 82.5034 255.066 81.929 254.487 81.6418C253.907 81.3546 253.096 81.1631 252.169 81.1631C251.242 81.1631 250.431 81.3545 249.735 81.7375C249.04 82.1204 248.692 82.6949 248.692 83.5565C248.692 83.9394 248.808 84.2266 249.04 84.5138C249.272 84.8011 249.619 85.0883 250.199 85.184C250.662 85.3755 251.126 85.4712 251.589 85.5669C252.053 85.6627 252.516 85.7584 252.98 85.8541C253.907 86.1414 254.487 86.5243 254.487 87.003C254.487 87.8646 253.791 88.2475 252.401 88.2475C251.937 88.3433 251.474 88.3433 251.126 88.0561Z" fill="#C89F9C"/>
<path d="M259.585 93.7045V87.8646C259.701 87.9603 259.817 88.0561 259.817 88.1518C260.744 89.0134 261.787 89.3964 263.178 89.3964C264.452 89.3964 265.611 89.0134 266.538 88.1518C267.349 87.3859 267.813 86.4286 267.813 85.2797C267.813 84.2266 267.349 83.2693 266.538 82.4076C265.611 81.546 264.568 81.1631 263.178 81.1631C261.903 81.1631 260.744 81.546 259.817 82.4076C259.701 82.5034 259.585 82.5991 259.585 82.6949V81.3546H258.079V93.7045H259.585ZM266.307 85.2797C266.307 86.0456 265.959 86.7158 265.379 87.2902C264.684 87.8646 263.989 88.1518 262.946 88.1518C262.019 88.1518 261.208 87.8646 260.512 87.2902C259.817 86.7158 259.585 86.0456 259.585 85.2797C259.585 84.5138 259.933 83.8437 260.512 83.2693C261.208 82.6949 262.019 82.4076 262.946 82.4076C263.873 82.4076 264.684 82.6949 265.379 83.2693C265.959 83.8437 266.307 84.5138 266.307 85.2797Z" fill="#C89F9C"/>
<path d="M271.637 78.6739C271.405 78.4824 271.174 78.4824 270.942 78.4824C270.71 78.4824 270.478 78.5782 270.247 78.6739C270.015 78.8654 270.015 79.0568 270.015 79.2483C270.015 79.4398 270.131 79.6312 270.247 79.8227C270.363 80.0142 270.71 80.0142 270.942 80.0142C271.174 80.0142 271.405 79.9185 271.637 79.8227C271.753 79.6312 271.869 79.4398 271.869 79.2483C271.869 78.9611 271.753 78.7696 271.637 78.6739ZM271.637 89.2049V81.3545H270.131V89.2049H271.637Z" fill="#C89F9C"/>
<path d="M273.491 82.5014H275.925V89.203H277.431V82.5014H279.749V81.3526H277.431V78.2891H275.925V81.3526H273.491V82.5014Z" fill="#C89F9C"/>
<path d="M289.019 85.2797C289.019 86.0456 288.672 86.7158 288.092 87.2902C287.397 87.8646 286.702 88.1518 285.774 88.1518C284.847 88.1518 284.036 87.8646 283.341 87.2902C282.646 86.7158 282.414 86.0456 282.414 85.2797C282.414 84.5138 282.762 83.8437 283.341 83.2693C284.036 82.6949 284.847 82.4076 285.774 82.4076C286.702 82.4076 287.513 82.6949 288.092 83.2693C288.672 83.8437 289.019 84.5138 289.019 85.2797ZM290.526 89.2049V81.3546H289.019V82.6949C288.903 82.5991 288.787 82.5034 288.787 82.4076C287.86 81.546 286.817 81.1631 285.427 81.1631C284.152 81.1631 282.993 81.546 282.066 82.4076C281.255 83.2693 280.792 84.1309 280.792 85.2797C280.792 86.4286 281.255 87.2902 282.066 88.1518C282.993 89.0134 284.036 89.3964 285.427 89.3964C286.702 89.3964 287.86 89.0134 288.787 88.1518C288.903 88.0561 289.019 87.9603 289.019 87.8646V89.2049H290.526Z" fill="#C89F9C"/>
<path d="M294.929 89.2048V75.8018H293.423V89.2048H294.929Z" fill="#C89F9C"/>
<path d="M305.359 85.2797C305.359 86.0456 305.011 86.7158 304.432 87.2902C303.737 87.8646 303.041 88.1518 302.114 88.1518C301.187 88.1518 300.376 87.8646 299.681 87.2902C298.985 86.7158 298.754 86.0456 298.754 85.2797C298.754 84.5138 299.101 83.8437 299.681 83.2693C300.376 82.6949 301.187 82.4076 302.114 82.4076C303.041 82.4076 303.852 82.6949 304.432 83.2693C305.011 83.8437 305.359 84.5138 305.359 85.2797ZM306.865 89.2049V81.3546H305.359V82.6949C305.243 82.5991 305.127 82.5034 305.127 82.4076C304.2 81.546 303.157 81.1631 301.767 81.1631C300.492 81.1631 299.333 81.546 298.406 82.4076C297.595 83.2693 297.131 84.1309 297.131 85.2797C297.131 86.4286 297.595 87.2902 298.406 88.1518C299.333 89.0134 300.376 89.3964 301.767 89.3964C303.041 89.3964 304.2 89.0134 305.127 88.1518C305.243 88.0561 305.359 87.9603 305.359 87.8646V89.2049H306.865Z" fill="#C89F9C"/>
<path d="M314.63 82.9821V81.3546C314.282 81.2588 314.05 81.1631 313.703 81.1631C312.66 81.1631 311.848 81.6418 311.385 82.5991L311.269 82.8863V81.2588H309.763V89.1092H311.269V85.184C311.269 84.5138 311.501 83.9394 311.848 83.4607C312.08 83.1735 312.312 82.9821 312.544 82.7906C312.776 82.5991 313.123 82.5034 313.587 82.5034C313.934 82.5991 314.282 82.7906 314.63 82.9821Z" fill="#C89F9C"/>
</g>
<defs>
<clipPath id="clip0_2813_370">
<rect width="340" height="100" fill="white"/>
</clipPath>
</defs>
</svg>
